<?xml version="1.0" encoding="utf-8"?>
<!-- Generator: Adobe Illustrator 23.0.0, SVG Export Plug-In . SVG Version: 6.00 Build 0)  -->
<svg version="1.1" xmlns="http://www.w3.org/2000/svg" xmlns:xlink="http://www.w3.org/1999/xlink" x="0px" y="0px"
	 viewBox="0 0 64 64" style="enable-background:new 0 0 64 64;" xml:space="preserve">
<style type="text/css">
	.st0{display:none;}
	.st1{display:inline;}
	.st2{fill:#002850;stroke:#FFFFFF;stroke-miterlimit:10;}
	.st3{fill:none;stroke:#FFFFFF;stroke-miterlimit:10;}
	.st4{fill:none;stroke:#FFFFFF;stroke-width:0.0851;stroke-miterlimit:10;}
	.st5{fill:none;stroke:#FFFFFF;stroke-width:0.1703;stroke-miterlimit:10;}
	.st6{fill:none;stroke:#FFFFFF;stroke-width:0.1277;stroke-miterlimit:10;}
	.st7{fill:none;stroke:#FFFFFF;stroke-width:0.3406;stroke-miterlimit:10;}
	.st8{fill:none;stroke:#FFFFFF;stroke-width:0.5;stroke-miterlimit:10;}
	.st9{fill:#FFFFFF;stroke:#FFFFFF;stroke-miterlimit:10;}
	.st10{fill:#FFFFFF;}
	.st11{opacity:0.99;fill:#002850;stroke:#002850;stroke-miterlimit:10;}
	.st12{fill:none;stroke:#FFFFFF;stroke-width:0.0426;stroke-miterlimit:10;}
	.st13{fill:none;stroke:#FFFFFF;stroke-width:0.02;stroke-miterlimit:10;}
	.st14{fill:none;stroke:#FFFFFF;stroke-width:0.05;stroke-miterlimit:10;}
	.st15{fill:none;stroke:#FFFFFF;stroke-width:0.2;stroke-miterlimit:10;}
	.st16{fill:#36000D;stroke:#FFFFFF;stroke-width:0.5;stroke-miterlimit:10;}
	.st17{fill:#FFFFFF;stroke:#FFFFFF;stroke-width:0.2;stroke-miterlimit:10;}
	.st18{fill:none;stroke:#002850;stroke-width:0.5;stroke-miterlimit:10;}
	.st19{display:inline;fill:none;stroke:#002850;stroke-miterlimit:10;}
	.st20{display:inline;fill:none;stroke:#002850;stroke-width:0.5;stroke-miterlimit:10;}
	.st21{fill:#002850;}
	.st22{fill:none;stroke:#002850;stroke-width:0.3406;stroke-miterlimit:10;}
	.st23{fill:none;}
	.st24{fill:#FFFFFF;stroke:#002850;stroke-width:0.2298;stroke-miterlimit:10;}
	.st25{fill:#83240D;}
	.st26{display:inline;fill:#1D1D1B;stroke:#000000;stroke-miterlimit:10;}
	.st27{display:inline;fill:#1D1D1B;}
	.st28{display:inline;fill:#FFFFFF;stroke:#000000;stroke-miterlimit:10;}
	.st29{fill:none;stroke:#002850;stroke-miterlimit:10;}
	.st30{fill:#FFFFFF;stroke:#002850;stroke-width:0.1703;stroke-miterlimit:10;}
	.st31{stroke:#002850;stroke-width:0.1703;}
	.st32{font-family:'MyriadPro-Regular';}
	.st33{font-size:2.0435px;}
	.st34{fill:none;stroke:#002850;stroke-width:0.3;stroke-miterlimit:10;}
	.st35{display:none;fill:none;stroke:#002850;stroke-width:0.1703;stroke-miterlimit:10;}
	.st36{display:inline;fill:#002850;stroke:#002850;stroke-width:0.1703;stroke-miterlimit:10;}
	.st37{display:inline;fill:#FFFFFF;stroke:#004080;stroke-width:0.1703;stroke-miterlimit:10;}
	.st38{fill:#002850;stroke:#002850;stroke-width:0.1703;stroke-miterlimit:10;}
	.st39{fill:#FFFFFF;stroke:#002850;stroke-width:0.3406;stroke-miterlimit:10;}
	.st40{fill:#FFFFFF;stroke:#002850;stroke-width:0.5;stroke-miterlimit:10;}
	.st41{fill:#B6AE49;stroke:#002850;stroke-width:0.511;stroke-miterlimit:10;}
	.st42{fill:#B6AE49;stroke:#002850;stroke-width:0.5;stroke-miterlimit:10;}
	.st43{fill:#B6AE49;stroke:#002850;stroke-width:0.3406;stroke-miterlimit:10;}
</style>
<g id="Background_xA0_Image_1_" class="st0">
</g>
<g id="expertice_c_1" class="st0">
	<g id="cercle_logo_4_" class="st1">
		<circle id="cercle_logo_3_" class="st2" cx="32" cy="32" r="30"/>
	</g>
	<g id="map" class="st1">
		<rect x="16.78" y="22.74" class="st3" width="30.43" height="18.52"/>
		<line class="st4" x1="24.7" y1="22.74" x2="24.7" y2="41.26"/>
		<line class="st5" x1="32.61" y1="22.74" x2="32.61" y2="41.26"/>
		<line class="st4" x1="40.52" y1="22.74" x2="40.52" y2="41.26"/>
		<line class="st6" x1="16.78" y1="29.23" x2="47.22" y2="29.23"/>
		<line class="st4" x1="16.78" y1="35.26" x2="47.22" y2="35.26"/>
		<line class="st7" x1="44.57" y1="22.74" x2="23.35" y2="41.26"/>
		<line class="st7" x1="47.22" y1="32.7" x2="40.52" y2="34.61"/>
		<line class="st7" x1="37.25" y1="41.26" x2="40.71" y2="34.55"/>
		<line class="st5" x1="16.78" y1="30.1" x2="41.36" y2="41.26"/>
		<line class="st8" x1="40.52" y1="41.26" x2="16.78" y2="30.45"/>
		<line class="st5" x1="39.15" y1="22.74" x2="47.22" y2="28.61"/>
		<line class="st7" x1="23.35" y1="22.74" x2="16.78" y2="28.22"/>
		<line class="st8" x1="16.78" y1="35.68" x2="29.01" y2="41.26"/>
	</g>
</g>
<g id="expertise_c_2">
	<circle id="cercle_logo_2_" class="st2" cx="32" cy="32" r="30"/>
	<g id="PC">
		<rect x="24.63" y="43.83" class="st9" width="14.66" height="2.28"/>
		<line class="st3" x1="30.72" y1="40.49" x2="30.72" y2="43.83"/>
		<line class="st3" x1="33.1" y1="40.49" x2="33.1" y2="43.83"/>
		<rect x="16.33" y="22.67" class="st9" width="31.44" height="17.54"/>
		<rect x="30.72" y="40.42" class="st10" width="2.14" height="2.98"/>
	</g>
	<g id="écran">
		<rect x="18.23" y="24.38" class="st11" width="27.59" height="14.05"/>
		
			<rect x="34.19" y="35.63" transform="matrix(0.9914 -0.1306 0.1306 0.9914 -4.3986 4.8149)" class="st12" width="0.62" height="0.62"/>
		
			<rect x="39.6" y="34.92" transform="matrix(0.9914 -0.1306 0.1306 0.9914 -4.2592 5.515)" class="st12" width="0.62" height="0.62"/>
		<line class="st13" x1="25.29" y1="38.64" x2="25.29" y2="24.38"/>
		<line class="st14" x1="32.05" y1="38.64" x2="32.05" y2="24.38"/>
		<line class="st13" x1="39.04" y1="38.64" x2="39.04" y2="24.38"/>
		<line class="st13" x1="18.23" y1="28.84" x2="45.99" y2="28.84"/>
		<line class="st13" x1="18.08" y1="33.74" x2="45.85" y2="33.74"/>
		<line class="st7" x1="26.85" y1="24.1" x2="33.34" y2="32.77"/>
		<line class="st7" x1="46.09" y1="35.94" x2="33.27" y2="32.75"/>
		<line class="st15" x1="17.98" y1="31.44" x2="45.87" y2="27.33"/>
		<line class="st16" x1="18.23" y1="37.38" x2="45.99" y2="33.72"/>
		<line class="st17" x1="18.08" y1="31.81" x2="45.87" y2="27.68"/>
		<rect x="18.1" y="24.28" class="st18" width="27.77" height="14.14"/>
	</g>
</g>
<g id="Géo_détection" class="st0">
	<circle id="cercle_logo" class="st19" cx="32.16" cy="32.24" r="30"/>
	<path id="terre_3_" class="st20" d="M3.38,31.74c14.04-5.7,30.05,1.07,35.74,15.12c0.98,2.41,1.62,4.97,1.88,7.56
		c0.13,1.26,0.17,2.53,0.12,3.79c-0.03,0.8-0.1,1.6-0.2,2.39"/>
	<g id="eau" class="st1">
		<g>
			<g>
				<path class="st21" d="M30.93,36.34c-0.79,0.25-1.56,0.53-2.32,0.84c-0.51,0.21-0.87,0.68-0.71,1.26
					c0.13,0.48,0.74,0.93,1.26,0.71c0.76-0.31,1.53-0.6,2.32-0.84C32.72,37.91,32.19,35.94,30.93,36.34L30.93,36.34z"/>
			</g>
		</g>
		<g>
			<g>
				<path class="st21" d="M31.2,36.2c-0.8,0.09-1.58,0.22-2.36,0.4c-1.28,0.31-0.74,2.28,0.54,1.97c0.6-0.14,1.2-0.26,1.82-0.33
					c0.55-0.06,1.02-0.43,1.02-1.02C32.23,36.72,31.76,36.14,31.2,36.2L31.2,36.2z"/>
			</g>
		</g>
		<g>
			<g>
				<path class="st21" d="M30.77,37.63c0.47,0,0.47-0.73,0-0.73C30.3,36.9,30.3,37.63,30.77,37.63L30.77,37.63z"/>
			</g>
		</g>
		<g>
			<g>
				<path class="st21" d="M30.5,36.27c-0.53,0.1-1.06,0.21-1.59,0.34c-1.28,0.31-0.74,2.29,0.54,1.97c0.53-0.13,1.06-0.24,1.59-0.34
					c0.54-0.1,0.85-0.76,0.71-1.26C31.61,36.42,31.05,36.17,30.5,36.27L30.5,36.27z"/>
			</g>
		</g>
		<g>
			<g>
				<path class="st21" d="M29.5,38.02c0.63,0.59,1.22,1.23,1.75,1.91c0.53,0.68,0.96,1.42,1.69,1.91c0.54,0.35,1.27-0.11,1.26-0.72
					c-0.02-1.94-2.07-3.62-3.57-4.56C29.73,35.99,28.72,37.29,29.5,38.02L29.5,38.02z"/>
			</g>
		</g>
		<g>
			<g>
				<path class="st21" d="M29.93,37.94c0.64,0.6,1.25,1.25,1.78,1.96c0.51,0.69,0.9,1.55,1.51,2.14c0.68,0.66,1.74-0.01,1.54-0.9
					c-0.21-0.95-1.1-1.9-1.83-2.5c-0.79-0.64-1.6-1.12-2.56-1.47C29.94,37.02,29.6,37.64,29.93,37.94L29.93,37.94z"/>
			</g>
		</g>
		<g>
			<g>
				<path class="st21" d="M30.52,37.45c0.52,1.27,1.32,2.39,2.04,3.56c0.78,1.27,1.39,2.64,2.28,3.83c0.76,1.01,2.67,0.49,2.22-0.93
					c-0.83-2.63-3.07-5.82-5.44-7.3C31.1,36.28,30.26,36.83,30.52,37.45L30.52,37.45z"/>
			</g>
		</g>
		<g>
			<g>
				<path class="st21" d="M33.26,41.18c0.98,1.83,1.84,3.74,2.63,5.65c0.35,0.85,0.83,3.13,2.22,2.6c3.06-1.16-2.73-7.8-3.61-8.98
					C33.95,39.73,32.81,40.34,33.26,41.18L33.26,41.18z"/>
			</g>
		</g>
		<g>
			<g>
				<path class="st21" d="M33.73,41.77c1.02,1.57,1.7,3.32,2.38,5.06c0.27,0.69,0.84,2.29,1.88,1.78c1.18-0.58,0.23-2.71-0.13-3.49
					c-0.75-1.63-1.81-2.91-3.08-4.15C34.24,40.45,33.31,41.12,33.73,41.77L33.73,41.77z"/>
			</g>
		</g>
		<g>
			<g>
				<path class="st21" d="M34.05,41.93c0.78,1.23,1.39,2.52,1.92,3.88c0.39,1.01,0.51,2.3,1.51,2.88c0.3,0.17,0.66,0.06,0.84-0.22
					c0.72-1.12-0.08-2.58-0.55-3.67c-0.61-1.4-1.53-2.64-2.52-3.8C34.69,40.34,33.59,41.2,34.05,41.93L34.05,41.93z"/>
			</g>
		</g>
		<g>
			<g>
				<path class="st21" d="M33.95,41.47c0.86,1.51,1.6,3.07,2.33,4.64c0.36,0.76,1.09,2.61,2.28,2.01c2.14-1.09-2.34-6.48-3.12-7.51
					C34.79,39.74,33.39,40.48,33.95,41.47L33.95,41.47z"/>
			</g>
		</g>
		<g>
			<g>
				<path class="st21" d="M30.62,38.1c-0.49,0.15-0.96,0.36-1.4,0.62c-1.12,0.68-0.1,2.45,1.03,1.76c0.3-0.18,0.58-0.32,0.91-0.42
					C32.42,39.69,31.89,37.72,30.62,38.1L30.62,38.1z"/>
			</g>
		</g>
		<g>
			<g>
				<path class="st21" d="M32.28,44.65c0.14-0.88,0.43-1.7,0.87-2.48c-0.62-0.08-1.24-0.16-1.87-0.24c0.45,2.94,0.56,5.83,0.39,8.79
					c0.67-0.09,1.34-0.18,2.01-0.27c-0.61-2.52-0.73-4.93-0.31-7.5c-0.66,0-1.31,0-1.97,0c1,2.96,1.53,5.9,1.6,9.03
					c0.63-0.17,1.27-0.34,1.9-0.52c-1.18-2.26-0.83-4.59-0.22-6.96c-0.66,0-1.31,0-1.97,0c1.07,2.96,1.83,5.96,2.25,9.08
					c0.63-0.17,1.27-0.34,1.9-0.52c-1.09-2.27-0.86-4.67-0.74-7.1c-0.67,0.09-1.34,0.18-2.01,0.27c0.08,0.19,0.14,0.38,0.19,0.58
					c0.62-0.08,1.24-0.16,1.87-0.24c-0.08-0.2-0.1-0.4-0.05-0.61c-0.67,0.09-1.34,0.18-2.01,0.27c0.97,2.86,2.09,5.65,1.62,8.74
					c0.62-0.08,1.24-0.16,1.87-0.24c-1.14-2-0.61-4.2-0.46-6.37c-0.67,0.09-1.34,0.18-2.01,0.27c1.06,2.63,1.5,5.17,1.36,8.02
					c0.67-0.09,1.34-0.18,2.01-0.27c-0.79-2.07-0.34-4.15-0.25-6.3c-0.67,0.09-1.34,0.18-2.01,0.27c0.62,2.09,0.97,4.13,1.05,6.32
					c0.58-0.24,1.16-0.48,1.74-0.72c-0.09-0.09-0.18-0.17-0.26-0.26c-0.94-0.92-2.39,0.53-1.44,1.44c0.09,0.09,0.18,0.17,0.26,0.26
					c0.61,0.6,1.78,0.18,1.74-0.72c-0.09-2.36-0.44-4.59-1.12-6.86c-0.33-1.12-1.96-0.88-2.01,0.27c-0.1,2.38-0.54,4.56,0.32,6.84
					c0.4,1.06,1.95,0.93,2.01-0.27c0.15-2.99-0.32-5.78-1.43-8.56c-0.42-1.06-1.92-0.93-2.01,0.27c-0.19,2.64-0.63,5,0.74,7.4
					c0.4,0.7,1.73,0.66,1.87-0.24c0.54-3.51-0.49-6.53-1.62-9.83c-0.37-1.1-1.94-0.9-2.01,0.27c-0.03,0.63-0.04,1.13,0.33,1.64
					c0.49,0.68,1.63,0.67,1.87-0.24c0.16-0.61,0.02-1.08-0.19-1.67c-0.38-1.08-1.95-0.91-2.01,0.27c-0.13,2.88-0.25,5.48,1.02,8.14
					c0.42,0.88,2.04,0.49,1.9-0.52c-0.44-3.31-1.19-6.49-2.32-9.63c-0.32-0.9-1.7-1.04-1.97,0c-0.75,2.95-1.03,5.76,0.43,8.53
					c0.47,0.9,1.93,0.48,1.9-0.52c-0.07-3.3-0.61-6.45-1.67-9.57c-0.29-0.86-1.8-1.08-1.97,0c-0.47,2.92-0.38,5.71,0.31,8.58
					c0.28,1.16,1.94,0.84,2.01-0.27c0.18-3.14,0.01-6.23-0.47-9.33c-0.13-0.87-1.49-0.99-1.87-0.24c-0.49,0.99-0.83,1.89-1.07,2.97
					C30.02,45.39,31.99,45.94,32.28,44.65L32.28,44.65z"/>
			</g>
		</g>
		<g>
			<g>
				<path class="st21" d="M30.12,45.97c0.05,0.81,0.07,1.61,0.05,2.42c0.68,0,1.36,0,2.04,0c-0.05-0.74-0.08-1.47-0.06-2.21
					c0.03-1.32-2.01-1.32-2.04,0c-0.02,0.74,0.01,1.47,0.06,2.21c0.09,1.3,2,1.33,2.04,0c0.02-0.81,0-1.62-0.05-2.42
					C32.09,44.66,30.04,44.65,30.12,45.97L30.12,45.97z"/>
			</g>
		</g>
		<g>
			<g>
				<path class="st21" d="M30.51,41.36c0.26-0.17,0.53-0.32,0.8-0.47c-0.5-0.2-1-0.41-1.5-0.61c0.06,0.24-0.2,0.5-0.33,0.68
					c-0.33,0.44-0.07,1.14,0.37,1.4c0.52,0.31,1.07,0.08,1.4-0.37c0.5-0.67,0.75-1.43,0.53-2.25c-0.17-0.66-0.93-0.91-1.5-0.61
					c-0.27,0.14-0.54,0.3-0.8,0.47C28.38,40.31,29.4,42.07,30.51,41.36L30.51,41.36z"/>
			</g>
		</g>
		<g>
			<g>
				<path class="st21" d="M30.68,41.76c0.31-0.23,0.64-0.42,0.99-0.58c-0.51-0.29-1.02-0.59-1.54-0.88
					c0.01,0.31-0.18,0.52-0.39,0.74c-0.91,0.95,0.53,2.4,1.44,1.44c0.58-0.61,1.01-1.32,0.99-2.18c-0.01-0.83-0.84-1.2-1.54-0.88
					c-0.35,0.16-0.68,0.35-0.99,0.58c-0.45,0.32-0.66,0.89-0.37,1.4C29.54,41.84,30.23,42.09,30.68,41.76L30.68,41.76z"/>
			</g>
		</g>
		<g>
			<g>
				<path class="st21" d="M31.24,42.56c0.2-0.18,0.39-0.32,0.62-0.46c-0.41-0.53-0.83-1.07-1.24-1.6c-0.24,0.29-0.49,0.57-0.77,0.83
					c-0.94,0.92,0.5,2.37,1.44,1.44c0.27-0.27,0.53-0.54,0.77-0.83c0.32-0.39,0.42-0.92,0.08-1.34c-0.31-0.39-0.87-0.53-1.32-0.26
					c-0.37,0.22-0.71,0.49-1.03,0.78C28.83,42.01,30.27,43.45,31.24,42.56L31.24,42.56z"/>
			</g>
		</g>
		<g>
			<g>
				<path class="st21" d="M36.68,48.76c0.35,2.03,0.6,4.08,0.11,6.09c-0.29,1.2,1.15,2.04,2.06,1.2c0.88-0.82,0.87-1.95,0.73-3.07
					c-0.21-1.6-0.57-3.18-1.01-4.73C38.22,47.01,36.48,47.54,36.68,48.76L36.68,48.76z"/>
			</g>
		</g>
		<g>
			<g>
				<path class="st21" d="M29.7,48.07c0.44,1.04,0.73,2.13,1.19,3.16c0.52,1.19,1.32,2.24,1.43,3.57c0.1,1.3,2.15,1.31,2.04,0
					c-0.1-1.22-0.5-2.26-1.07-3.34c-0.67-1.27-1.07-2.61-1.62-3.93C31.17,46.33,29.19,46.86,29.7,48.07L29.7,48.07z"/>
			</g>
		</g>
		<g>
			<g>
				<path class="st21" d="M36.75,47.47c0.64,1.93,0.82,3.93,1.16,5.92c0.06,0.34,0.42,0.68,0.76,0.76c0.21,0.04,0.37,0.06,0.58,0
					c0.46-0.14,0.79-0.56,0.79-1.04c0.03-2.24-0.89-4.31-2.13-6.12C37.53,46.43,36.52,46.76,36.75,47.47L36.75,47.47z"/>
			</g>
		</g>
		<g>
			<g>
				<path class="st21" d="M37.35,47.69c0.31,0.78,0.27,1.77,0.37,2.61c0.12,0.99,0.1,1.98,0.2,2.97c0.12,1.15,1.96,1.65,2.21,0.3
					c0.36-1.95,0.13-5.5-1.87-6.58C37.83,46.75,37.14,47.15,37.35,47.69L37.35,47.69z"/>
			</g>
		</g>
		<g>
			<g>
				<path class="st21" d="M37.5,47.56c-0.04,1.66,0.45,3.29,0.62,4.94c0.16,1.49-0.21,3.23,0.58,4.56c0.25,0.43,0.88,0.53,1.23,0.16
					c1.24-1.3,0.95-3.4,0.73-5.06c-0.24-1.81-0.8-3.73-2.17-5.01C38.11,46.82,37.51,47.06,37.5,47.56L37.5,47.56z"/>
			</g>
		</g>
		<g>
			<g>
				<path class="st21" d="M37.46,47.44c0.51,1.54,0.43,3.63,0.56,5.25c0.13,1.64-0.29,3.69,0.61,5.11c0.24,0.38,0.88,0.56,1.2,0.16
					c1.31-1.64,0.8-4.37,0.58-6.35c-0.17-1.51-0.29-4.03-1.77-4.87c-0.23-0.13-0.56-0.16-0.78,0c-0.06,0.04-0.11,0.08-0.17,0.12
					C37.52,46.97,37.39,47.21,37.46,47.44L37.46,47.44z"/>
			</g>
		</g>
		<g>
			<g>
				<path class="st21" d="M19.33,51.59c-0.74,0.46-1.44,0.97-2.11,1.53c-0.42,0.36-0.37,1.08,0,1.44c0.42,0.42,1.02,0.36,1.44,0
					c0.53-0.45,1.1-0.84,1.69-1.21C21.47,52.66,20.45,50.89,19.33,51.59L19.33,51.59z"/>
			</g>
		</g>
		<g>
			<g>
				<path class="st21" d="M17.52,54.4c1.46,0.95,3.24,1.1,4.96,1.23c1.97,0.16,5.15-0.36,6.95,0.49c1.29,0.61,2.43-1.29,1.13-1.93
					c-1.66-0.82-4.11-0.61-5.91-0.66c-2.3-0.05-4.75-0.36-7.02,0C17.2,53.61,17.22,54.2,17.52,54.4L17.52,54.4z"/>
			</g>
		</g>
		<g>
			<g>
				<path class="st21" d="M28.69,49.31c0.49,1.97,0.98,3.94,1.46,5.92c0.62-0.26,1.24-0.52,1.87-0.79c-0.76-1.75-1.03-3.52-1-5.42
					c-0.67,0.09-1.34,0.18-2.01,0.27c0.91,2.69,1.82,5.39,2.72,8.08c0.42,1.24,2.32,0.74,1.97-0.54c-0.71-2.61-1.31-5.24-1.79-7.9
					c-0.66,0.18-1.31,0.36-1.97,0.54c1.26,3.09,2.74,6.57,3.31,9.86c0.66-0.18,1.31-0.36,1.97-0.54c-0.05-0.21-0.09-0.42-0.14-0.63
					c-0.29-1.28-2.26-0.74-1.97,0.54c0.05,0.21,0.09,0.42,0.14,0.63c0.66-0.18,1.31-0.36,1.97-0.54c-0.51-1.25-1.05-2.37-0.76-3.78
					c-0.5,0.2-1,0.41-1.5,0.61c1.37,0.87,1.34,2.56,1.29,4c0.63-0.17,1.27-0.34,1.9-0.52c-0.03,0-0.06-0.01-0.09-0.01
					c-0.42,0.24-0.84,0.48-1.26,0.71c0.06,0.01,0.11,0.02,0.17,0.02c-0.24-0.24-0.48-0.48-0.71-0.71c0.02,0.17,0.02,0.34-0.01,0.51
					c0.63-0.17,1.27-0.34,1.9-0.52c-0.43-0.61-0.46-2.14-0.74-2.37c0.1-0.44,0.04-0.48-0.19-0.13c-0.26,0.18-0.31,0.43-0.16,0.75
					c-0.01,0.14,0.04,1.21,0.13,1.29c0.83-0.79,1.26-0.82,1.28-0.1c0.1,0.27,0.11,0.53,0,0.8c0.34,0,0.69,0,1.03,0
					c0.23,0.08,0.33-0.05,0.33-0.39c-0.41,0.07-0.67,0.29-0.78,0.67c0.53-0.07,1.07-0.14,1.6-0.21c-0.36-0.32,0.86-1.52,1.09-1.75
					c-0.58-0.24-1.16-0.48-1.74-0.72c0.02,0.56,0.19,1.09-0.16,1.56c-0.78,1.06,0.99,2.08,1.76,1.03c0.63-0.85,0.47-1.56,0.44-2.59
					c-0.03-0.86-1.11-1.38-1.74-0.72c-1.14,1.19-2.73,3.2-1.09,4.64c0.48,0.42,1.27,0.4,1.6-0.21c0.68-1.24,1.33-4.25-1.03-4.09
					c-1.49,0.1-2.66,2.53-2.05,3.81c0.81,1.7,2.53,0.56,2.79-0.85c0.3-1.57-0.59-3.77-2.5-3.49c-1.86,0.28-2.86,3.18-1.36,4.46
					c1.85,1.58,2.59-1.19,2.51-2.5c-0.08-1.24-0.54-4.96-2.75-3.74c-1.96,1.08-1,4.54-0.06,5.89c0.61,0.86,1.79,0.5,1.9-0.52
					c0.04-0.37,0.01-0.69-0.06-1.05c-0.06-0.31-0.39-0.67-0.71-0.71c-0.06-0.01-0.11-0.02-0.17-0.02c-0.51-0.07-1.15,0.12-1.26,0.71
					c-0.11,0.61,0.02,1.03,0.29,1.59c0.47,0.95,1.87,0.44,1.9-0.52c0.07-2.27-0.25-4.46-2.3-5.76c-0.53-0.34-1.37-0.03-1.5,0.61
					c-0.37,1.79,0.07,3.2,0.76,4.87c0.49,1.19,2.26,0.78,1.97-0.54c-0.05-0.21-0.09-0.42-0.14-0.63c-0.29-1.28-2.26-0.74-1.97,0.54
					c0.05,0.21,0.09,0.42,0.14,0.63c0.29,1.3,2.19,0.73,1.97-0.54c-0.57-3.29-2.05-6.77-3.31-9.86c-0.49-1.21-2.21-0.77-1.97,0.54
					c0.48,2.66,1.08,5.29,1.79,7.9c0.66-0.18,1.31-0.36,1.97-0.54c-0.91-2.69-1.82-5.39-2.72-8.08c-0.36-1.07-1.99-0.92-2.01,0.27
					c-0.03,2.28,0.37,4.36,1.28,6.45c0.48,1.09,2.13,0.29,1.87-0.79c-0.48-1.98-0.96-3.95-1.46-5.92
					C30.34,47.49,28.37,48.03,28.69,49.31L28.69,49.31z"/>
			</g>
		</g>
		<g>
			<g>
				<path class="st21" d="M27.48,49.97c-0.34,1.35-1.12,3.23-0.24,4.47c0.59,0.84,1.83,0.53,1.9-0.52c0.04-0.51,0.06-0.96-0.3-1.37
					c-0.48-0.54-1.24-0.28-1.6,0.21c-0.35,0.46-0.2,1.21,0,1.68c0.44,1.03,1.83,0.37,1.9-0.52c0.11-1.2,0.23-2.39,0.51-3.57
					c0.3-1.28-1.67-1.82-1.97-0.54c-0.32,1.35-0.46,2.73-0.58,4.11c0.63-0.17,1.27-0.34,1.9-0.52c0.06,0.26,0.09,0.31,0.08,0.12
					c0,0.09-0.03,0.18-0.08,0.26c-0.53,0.07-1.07,0.14-1.6,0.21c-0.41-0.47-0.25-0.69-0.3-0.07c0.63-0.17,1.27-0.34,1.9-0.52
					c-0.08-0.12-0.17-0.24-0.27-0.36c0.15,0.31,0.2,0.3,0.17-0.04c0.09-0.21,0.07-0.53,0.12-0.75c0.12-0.58,0.28-1.16,0.43-1.74
					C29.76,49.24,27.79,48.69,27.48,49.97L27.48,49.97z"/>
			</g>
		</g>
		<g>
			<g>
				<path class="st21" d="M27.56,49.66c-0.97,1.15-2.25,1.94-3.34,2.96c0.53,0.41,1.07,0.83,1.6,1.24c0.12-0.18,0.21-0.31,0.35-0.47
					c-0.53-0.41-1.07-0.83-1.6-1.24c-0.11,0.2-0.2,0.31-0.35,0.47c0.53,0.41,1.07,0.83,1.6,1.24c0.27-0.41,0.54-0.83,0.82-1.24
					c0.73-1.1-1.04-2.12-1.76-1.03c-0.27,0.41-0.55,0.83-0.82,1.24c-0.64,0.97,0.81,2.08,1.6,1.24c0.26-0.27,0.5-0.55,0.67-0.88
					c0.54-1-0.78-2.1-1.6-1.24c-0.26,0.27-0.47,0.57-0.67,0.88c-0.64,1,0.78,2.01,1.6,1.24c1.09-1.02,2.38-1.81,3.34-2.96
					C29.84,50.1,28.4,48.65,27.56,49.66L27.56,49.66z"/>
			</g>
		</g>
		<g>
			<g>
				<path class="st21" d="M25.6,51.05c-0.94,0.83-2.18,1.29-3.43,1c0.24,0.42,0.48,0.84,0.71,1.26c0.04-0.12,0.1-0.24,0.18-0.34
					c0.72-1.1-1.05-2.13-1.76-1.03c-0.17,0.26-0.29,0.53-0.39,0.82c-0.17,0.51,0.2,1.14,0.71,1.26c1.99,0.46,3.91-0.19,5.42-1.52
					C28.03,51.62,26.58,50.18,25.6,51.05L25.6,51.05z"/>
			</g>
		</g>
		<g>
			<g>
				<path class="st21" d="M30.59,54.34c-0.98-0.74-2.18-0.68-3.35-0.66c-0.29,0.01-2.59-0.16-2.31-0.71
					c0.58-1.17-1.18-2.21-1.76-1.03c-0.76,1.52,0.1,2.75,1.55,3.36c0.66,0.28,1.34,0.41,2.06,0.43c0.95,0.02,1.98-0.24,2.79,0.37
					C30.61,56.9,31.63,55.13,30.59,54.34L30.59,54.34z"/>
			</g>
		</g>
		<g>
			<g>
				<path class="st21" d="M39.47,54.98c-0.44,1.63-0.63,3.46-0.83,5.13c-0.13,1.09,1.48,1.15,1.8,0.24c0.61-1.7,0.65-3.84-0.08-5.49
					C40.19,54.46,39.57,54.6,39.47,54.98L39.47,54.98z"/>
			</g>
		</g>
		<g>
			<g>
				<path class="st21" d="M39.61,54.8c-0.19,1.75-0.83,3.47-1.06,5.23c-0.13,1.02,1.34,1.02,1.66,0.22c0.74-1.86,0.9-3.68,0.39-5.58
					C40.44,54.08,39.66,54.27,39.61,54.8L39.61,54.8z"/>
			</g>
		</g>
		<g>
			<g>
				<path class="st21" d="M39.48,54.4c-0.79,1.44-0.28,3.27-0.68,4.82c-0.35,1.36,1.76,1.95,2.11,0.58c0.39-1.51,0.63-4.08-0.38-5.4
					C40.26,54.06,39.72,53.96,39.48,54.4L39.48,54.4z"/>
			</g>
		</g>
		<g>
			<g>
				<path class="st21" d="M39.52,53.97c-0.52,0.86-0.61,1.88-0.74,2.85c-0.11,0.78,0.05,2.37-0.84,2.54
					c-1.47,0.27-0.84,2.47,0.61,2.23c1.64-0.28,2.02-1.29,2.21-2.8c0.19-1.54,0.47-3.41-0.33-4.81
					C40.24,53.62,39.73,53.64,39.52,53.97L39.52,53.97z"/>
			</g>
		</g>
		<g>
			<g>
				<path class="st21" d="M29.22,48.25c-0.03,0.25-0.06,0.5-0.09,0.76c0.68,0,1.36,0,2.04,0c0.02-0.29-0.02-0.59-0.12-0.86
					c-0.19-0.52-0.69-0.87-1.26-0.71c-0.5,0.14-0.91,0.74-0.71,1.26c0.07,0.18,0.06,0.13,0.05,0.32c-0.04,0.55,0.5,1.02,1.02,1.02
					c0.61,0,0.95-0.47,1.02-1.02c0.03-0.25,0.06-0.5,0.09-0.76c0.07-0.55-0.52-1.02-1.02-1.02C29.63,47.23,29.29,47.7,29.22,48.25
					L29.22,48.25z"/>
			</g>
		</g>
		<g>
			<g>
				<path class="st21" d="M38.83,60.78c0.47,0.37,0.72,0.52,1.33,0.46c1.05-0.11,1.5-1.78,0.27-2.01c-3.46-0.63-7.95-0.19-9.02-4.84
					c-0.62,0.26-1.24,0.52-1.87,0.79c0.85,1.56,1.41,3.12,1.78,4.85c0.57-0.33,1.14-0.66,1.71-0.99c-1.59-1.34-2.9-2.93-4.57-4.19
					c-0.98-0.74-1.95,0.78-1.24,1.6c1.28,1.46,2.47,2.93,3.64,4.49c0.38-0.5,0.77-1,1.15-1.5c-2.13-0.89-4.29-3.06-6.09-4.55
					c-0.41,0.53-0.83,1.07-1.24,1.6c0.27,0.17,0.53,0.34,0.8,0.52c1.11,0.72,2.13-1.05,1.03-1.76c-0.27-0.17-0.53-0.34-0.8-0.52
					c-0.26,0.62-0.52,1.24-0.79,1.87c2.11,0.86,3.84,2.12,6.09,2.61c0.96,0.21,1.76-0.96,0.99-1.71c-1.82-1.78-3.7-3.47-5.67-5.07
					c-0.24,0.58-0.48,1.16-0.72,1.74c0.83,0.21,1.66,0.41,2.49,0.62c0.17-0.63,0.34-1.27,0.52-1.9c-2.85-0.27-5.6-0.7-8.47-0.38
					c-1.27,0.14-1.34,2.08,0,2.04c1.51-0.05,2.9,0.01,4.41,0.19c-0.09-0.67-0.18-1.34-0.27-2.01c-1.04-0.02-2.09-0.04-3.13-0.05
					c0.08,0.62,0.16,1.24,0.24,1.87c3.48-1.78,11.39-0.7,9.99-6.71c-0.3-1.28-2.27-0.74-1.97,0.54c0.28,1.2-1.97,2.42-2.78,2.8
					c-0.83,0.4-2.18,0.46-2.99,0.6c-1.23,0.22-2.17,0.43-3.28,1c-0.74,0.38-0.63,1.73,0.24,1.87c1.5,0.24,2.72,0.3,4.22,0.05
					c1.23-0.21,0.77-1.89-0.27-2.01c-1.5-0.17-2.89-0.23-4.41-0.19c0,0.68,0,1.36,0,2.04c2.87-0.32,5.62,0.12,8.47,0.38
					c1.02,0.1,1.38-1.45,0.52-1.9c-1.21-0.63-2.16-0.88-3.52-0.89c-0.82-0.01-1.43,1.17-0.72,1.74c1.97,1.61,3.85,3.3,5.67,5.07
					c0.33-0.57,0.66-1.14,0.99-1.71c-2.18-0.47-4.03-1.77-6.09-2.61c-1.12-0.45-1.71,1.27-0.79,1.87c0.27,0.17,0.53,0.34,0.8,0.52
					c1.11,0.72,2.13-1.05,1.03-1.76c-0.27-0.17-0.53-0.34-0.8-0.52c-0.96-0.62-2.14,0.86-1.24,1.6c2.18,1.79,4.37,3.98,7,5.07
					c0.8,0.33,1.67-0.81,1.15-1.5c-1.26-1.69-2.57-3.32-3.96-4.9c-0.41,0.53-0.83,1.07-1.24,1.6c1.52,1.15,2.71,2.64,4.16,3.87
					c0.78,0.66,1.93,0.04,1.71-0.99c-0.42-1.95-1.04-3.59-1.98-5.34c-0.57-1.05-2.12-0.32-1.87,0.79c0.5,2.15,2.51,5.92,5.34,4.84
					c1.71-0.66,2.9-3.84,1.18-5.1c-1.69-1.24-4.44,0.78-4.52,2.64c-0.17,3.79,6.24,3.49,8.45,3.89c0.09-0.67,0.18-1.34,0.27-2.01
					c0.04,0.05,0.08,0.09,0.12,0.14C39.25,58.53,37.79,59.97,38.83,60.78L38.83,60.78z"/>
			</g>
		</g>
		<g>
			<g>
				<path class="st21" d="M22.71,51.77c-0.34,0.47-0.68,0.95-1.03,1.42c-0.32,0.45-0.08,1.14,0.37,1.4c0.52,0.3,1.07,0.08,1.4-0.37
					c0.34-0.47,0.69-0.95,1.03-1.42c0.32-0.45,0.08-1.14-0.37-1.4C23.59,51.11,23.03,51.32,22.71,51.77L22.71,51.77z"/>
			</g>
		</g>
		<g>
			<g>
				<path class="st21" d="M19.07,55.97c3.63,1.77,7.6,2.45,11.24,4.17c0.21-0.79,0.43-1.58,0.64-2.37c-1.64,0.19-4-1.33-5.53-1.82
					c-1.64-0.52-3.29-0.83-5.01-1c-1.36-0.13-1.34,1.75-0.29,2.18c2.97,1.24,5.95,2.44,8.94,3.62c0.21-0.74,0.41-1.49,0.62-2.23
					c-3.61-1.15-6.97-2.82-10.66-3.74c-0.1,0.74-0.2,1.48-0.3,2.23c2.11,0.13,4.17,1.54,6.06,2.4c1.25,0.56,2.34-1.28,1.08-1.85
					c-0.78-0.35-0.98-0.44-1.81-0.65c-0.47-0.12-0.96,0.42-0.67,0.87c0.46,0.69,0.6,0.86,1.18,1.47c0.43-0.56,0.87-1.12,1.3-1.68
					c-2.25-1.17-4.57-2.63-7.14-2.82c-1.29-0.09-1.52,1.9-0.3,2.23c3.67,0.97,7.04,2.65,10.65,3.79c1.44,0.46,1.98-1.71,0.62-2.23
					c-3-1.15-5.99-2.32-8.97-3.52c-0.1,0.73-0.2,1.45-0.29,2.18c2.22,0.19,4.27,0.9,6.32,1.74c1.4,0.57,2.69,1.36,4.22,1.4
					c1.21,0.04,1.79-1.82,0.64-2.37c-3.84-1.82-7.94-2.11-11.96-3.31C18.86,54.41,18.32,55.6,19.07,55.97L19.07,55.97z"/>
			</g>
		</g>
		<g>
			<g>
				<path class="st21" d="M21.74,52.73c-0.34-0.56-0.91-0.77-1.51-0.41c-0.92,0.54-0.04,2.01,0.83,1.42c0.1-0.07,0.2-0.14,0.29-0.21
					c0.05-0.04,0.1-0.08,0.15-0.11c0.09-0.08,0.08-0.08-0.04,0.01C21.76,53.35,21.9,52.98,21.74,52.73L21.74,52.73z"/>
			</g>
		</g>
		<g>
			<g>
				<path class="st21" d="M16.46,55.85c2.24,2,5.55,2.75,8.39,3.46c0.2-0.73,0.4-1.46,0.6-2.19c-2.68-0.63-5.71-0.77-8.23-1.92
					c-0.68-0.31-1.52,0.54-0.86,1.12c1.52,1.32,3.42,2.13,5.32,2.74c1.4,0.45,3.55,1.36,5.01,0.74c0.22-0.09,0.4-0.42,0.38-0.66
					c0-0.04-0.01-0.07-0.01-0.11c-0.03-0.31-0.15-0.67-0.46-0.81c-1.49-0.65-3.08-0.93-4.64-1.39c-1.67-0.48-3.25-1.16-4.9-1.71
					c-0.18,0.43-0.36,0.87-0.55,1.3c2.59,1.35,5.55,2.11,8.34,2.88c1.41,0.38,2.01-1.81,0.6-2.19c-2.8-0.74-5.46-1.75-8.21-2.62
					C16.49,54.27,15.86,55.31,16.46,55.85L16.46,55.85z"/>
			</g>
		</g>
		<g>
			<g>
				<path class="st21" d="M16,57.09c2.09,1.68,4.58,2.61,7.15,3.31c1.77,0.48,4.75,1.68,6.26,0.23c0.14-0.13,0.14-0.33,0.06-0.49
					c-0.85-1.71-3.56-1.66-5.24-2.03c-2.58-0.56-5.05-1.4-7.59-2.14C16.04,55.79,15.46,56.65,16,57.09L16,57.09z"/>
			</g>
		</g>
		<g>
			<g>
				<path class="st21" d="M19.63,58.88c2.61,1.4,5.17,2.26,8.12,2.62c2.43,0.3,5.53,0.8,7.54-0.83c0.31-0.25,0.19-0.78-0.12-0.97
					c-1.91-1.1-4.27-0.52-6.4-0.59c-2.9-0.09-5.84-0.58-8.58-1.56C19.41,57.27,18.91,58.49,19.63,58.88L19.63,58.88z"/>
			</g>
		</g>
		<g>
			<g>
				<path class="st21" d="M33.93,59.54c-0.56-0.1-1.11-0.23-1.66-0.4c-0.05,0.34-0.09,0.68-0.14,1.02c0.52,0,1.38-0.04,1.82,0.28
					c0.16-0.39,0.33-0.78,0.49-1.17c-0.3-0.12-0.62-0.22-0.94-0.3c-0.26-0.07-0.55,0-0.73,0.19c-0.03,0.03-0.05,0.05-0.08,0.08
					c-0.13,0.14-0.23,0.39-0.15,0.57c0.14,0.34,0.29,0.54,0.66,0.62c0.34,0.08,0.72,0.08,1.07,0.09c0.9,0.02,0.79-1.4-0.17-1.26
					c-0.25,0.04-0.63-0.1-0.89-0.12c-0.36-0.03-0.72-0.04-1.08-0.02c-0.56,0.02-0.73,0.89-0.14,1.02c0.6,0.14,1.21,0.22,1.82,0.28
					C34.31,60.46,34.43,59.63,33.93,59.54L33.93,59.54z"/>
			</g>
		</g>
		<g>
			<g>
				<path class="st21" d="M32.24,42.47c0.05,0.65-0.53,1.72-0.75,2.32c-0.36,1.01-0.74,2.02-1.18,2.99
					c-0.58,1.31-1.52,2.59-1.2,4.05c0.08,0.39,0.56,0.65,0.93,0.53c1.86-0.57,2.62-3.07,3.28-4.72c0.77-1.94,1.4-3.64,0.39-5.58
					C33.35,41.4,32.18,41.69,32.24,42.47L32.24,42.47z"/>
			</g>
		</g>
		<g>
			<g>
				<path class="st21" d="M31.14,42.65c-1.53,1-1.98,3.66-2.59,5.27c-0.35,0.93-1.87,3.67-0.26,4.25c1.62,0.58,2.45-2.55,2.8-3.55
					c0.56-1.61,1.59-4.22,0.63-5.82C31.6,42.61,31.33,42.52,31.14,42.65L31.14,42.65z"/>
			</g>
		</g>
		<g>
			<g>
				<path class="st21" d="M29.18,38.95c-0.57,0.7-2,1.85-1.38,2.88c0.3,0.49,0.87,0.51,1.35,0.71c0.49,0.21,0.84,0.55,1.26,0.86
					c1.13,0.83,2.45-0.42,1.54-1.54c-0.77-0.94-1.94-1.15-3.01-1.51c0.2,0.15,0.4,0.31,0.6,0.46c0.05,0.3,0.07,0.3,0.06,0
					c0.01-0.17,0.03-0.33,0.07-0.5c0.06-0.32,0.16-0.61,0.28-0.91C30.12,38.98,29.46,38.6,29.18,38.95L29.18,38.95z"/>
			</g>
		</g>
		<g>
			<g>
				<path class="st21" d="M30.71,43.07c0.67,2.52,0.05,4.65-0.72,7.04c-0.35,1.08,1.13,1.54,1.72,0.72
					c1.73-2.43,1.45-5.71,0.34-8.32C31.71,41.74,30.5,42.29,30.71,43.07L30.71,43.07z"/>
			</g>
		</g>
		<g>
			<g>
				<path class="st21" d="M31.85,50.3c0.65,1.07,1.29,2.19,0.94,3.48c0.73,0,1.45,0,2.18,0c-0.12-0.19-0.12-0.34-0.01-0.46
					c-0.3,0.04-0.59,0.08-0.89,0.12c0.06,0.02,0.13,0.05,0.19,0.07c-0.23-0.18-0.47-0.36-0.7-0.54c0.12,0.2-0.43,0.79-0.52,0.88
					c0.77,0.2,1.54,0.41,2.31,0.61c-0.04-0.14-0.17-0.85,0.02-1c-0.35,0.05-0.7,0.09-1.05,0.14c0.09,0.02,0.19,0.03,0.28,0.05
					c-0.32-0.32-0.64-0.64-0.96-0.96c0.17,0.41-0.23,1.2-0.66,1.33c-0.67,0.2-0.68-1.05-1.23-0.68c-0.36,0.05-0.72,0.09-1.09,0.14
					c0.07,0.02,0.14,0.05,0.21,0.07c-0.28-0.22-0.56-0.43-0.84-0.65c0.12,0.22,0.31,0.34,0.58,0.36c-0.06-0.1-0.11-0.2-0.17-0.3
					c-1.2,0.52-1.44,0.66-0.7,0.41c-0.43,0.1-0.6,0.3-0.51,0.6c-0.21,0.46-0.44,1.49-0.43,2.01c0.01,0.6,0.46,0.95,1.01,1.01
					c2.51,0.3,2.73-3.46,1.67-4.92c-1.37-1.88-4.32-1.23-4.55,1.16c-0.22,2.24,2.49,4.1,4.35,2.59c1.77-1.43,1.1-5.07-1.3-5.36
					c-2.74-0.33-2.93,3.39-1.46,4.88c1.63,1.65,4.58,0.95,4.7-1.55c0.04-0.98-0.36-2.29-1.25-2.83c-0.87-0.52-1.94-0.16-2.37,0.73
					c-0.99,2.06,0.63,5.23,2.96,5.4c2.46,0.19,4.79-2.99,3.7-5.28c-0.51-1.07-1.84-1.13-2.67-0.4c-1.06,0.93-1.22,2.49-0.89,3.78
					c0.24,0.93,1.64,1.43,2.31,0.61c0.89-1.1,1.78-3.66,0.02-4.49c-1.81-0.85-2.6,1.79-2.24,3.07c0.29,1.02,1.95,1.14,2.18,0
					c0.42-2.1-0.58-3.49-1.86-5.05C32.52,48.63,31.38,49.54,31.85,50.3L31.85,50.3z"/>
			</g>
		</g>
		<g>
			<g>
				<path class="st21" d="M19.74,57.28c0.09,0.8,0.61,1.2,1.32,1.51c0.8,0.35,1.72,0.67,2.58,0.84c1.19,0.24,1.9-1.3,0.83-1.98
					c-0.61-0.39-1.36-0.55-2.06-0.69c-0.36-0.07-0.72-0.14-1.08-0.19c-0.26-0.04-0.6,0.01-0.84-0.06
					C20.15,56.62,19.69,56.89,19.74,57.28L19.74,57.28z"/>
			</g>
		</g>
		<g>
			<g>
				<path class="st21" d="M19.79,58.51c1.45,0.94,3.01,1.65,4.76,1.79c0.31,0.02,0.72-0.2,0.85-0.49c0.13-0.28,0.14-0.46,0.1-0.76
					c-0.05-0.32-0.39-0.61-0.69-0.69c-1.51-0.39-3.08-0.52-4.61-0.82C19.61,57.44,19.27,58.18,19.79,58.51L19.79,58.51z"/>
			</g>
		</g>
		<g>
			<g>
				<path class="st21" d="M19.56,58.66c0.29,0.28,0.58,0.47,0.96,0.61c0.77,0.28,1.15-1.04,0.34-1.24
					c-0.23-0.06-0.43-0.11-0.64-0.23C19.69,57.51,19.11,58.22,19.56,58.66L19.56,58.66z"/>
			</g>
		</g>
		<g>
			<g>
				<path class="st21" d="M20.06,58.78c1.38,0.47,2.75,0.96,4.15,1.36c1.13,0.33,2.21,0.8,3.16-0.08c0.29-0.27,0.27-0.67,0.13-1
					c-0.49-1.14-1.82-1.11-2.9-1.29c-1.36-0.23-2.73-0.39-4.09-0.6C19.46,57.02,19.02,58.43,20.06,58.78L20.06,58.78z"/>
			</g>
		</g>
		<g>
			<g>
				<path class="st21" d="M20.12,59.2c1.59,1.03,3.98,2.18,5.91,2.06c1.11-0.07,1.7-1.62,0.6-2.22c-1.71-0.92-4.18-1.15-6.11-1.35
					C19.68,57.61,19.51,58.8,20.12,59.2L20.12,59.2z"/>
			</g>
		</g>
		<g>
			<g>
				<path class="st21" d="M19.4,58.99c1.34,1.64,3.95,1.93,5.94,2.18c1.83,0.23,4.64,0.79,5.95-0.86c0.11-0.14,0.11-0.29,0-0.43
					c-1.15-1.47-3.46-1.16-5.13-1.28c-2.11-0.15-4.43-0.97-6.5-0.59C19.18,58.11,19.15,58.69,19.4,58.99L19.4,58.99z"/>
			</g>
		</g>
		<g>
			<g>
				<path class="st21" d="M25.29,60.63c1.69,0.4,3.37,0.77,5.1,0.91c1.35,0.11,2.8,0.36,3.66-0.84c0.19-0.26,0.07-0.6-0.11-0.82
					c-0.86-1.05-2.32-0.71-3.55-0.71c-1.63-0.01-3.26,0-4.89-0.13C24.59,58.96,24.4,60.42,25.29,60.63L25.29,60.63z"/>
			</g>
		</g>
		<g>
			<g>
				<path class="st21" d="M25.88,61.17c1.71,0.48,3.33,0.93,5.11,1.06c1.38,0.1,2.9,0.3,3.76-0.94c0.21-0.3,0.09-0.69-0.12-0.94
					c-0.88-1.06-2.38-0.74-3.63-0.72c-1.64,0.03-3.28,0.17-4.92,0.15C25.26,59.77,25.11,60.95,25.88,61.17L25.88,61.17z"/>
			</g>
		</g>
		<g>
			<g>
				<path class="st21" d="M25.54,60.81c0.97,0.73,2.34,0.86,3.52,0.98c1.29,0.13,1.59-2.05,0.31-2.27c-1.17-0.2-2.36-0.3-3.54-0.44
					c-1.23-0.15-1.45,1.83-0.29,2.13c0.73,0.2,1.47,0.39,2.2,0.61c0.19-0.68,0.37-1.35,0.56-2.03c-0.71-0.17-1.43-0.31-2.15-0.41
					c-0.56-0.08-1.13,0.14-1.3,0.74c-0.14,0.51,0.17,1.19,0.74,1.3c0.94,0.17,2.05,0.43,2.99,0.2c1.13-0.28,0.88-2.03-0.27-2.02
					c-0.72,0.01-1.45-0.09-2.16-0.22c-0.19,0.68-0.37,1.35-0.56,2.03c0.72,0.1,1.44,0.24,2.15,0.41c1.32,0.31,1.87-1.65,0.56-2.03
					c-0.73-0.21-1.45-0.44-2.18-0.67c-0.19,0.7-0.39,1.4-0.58,2.1c1.17,0.2,2.34,0.44,3.52,0.58c0-0.77,0-1.54,0-2.31
					c-1.11-0.02-2.27-0.2-3.35,0.07C25.07,59.7,25.1,60.47,25.54,60.81L25.54,60.81z"/>
			</g>
		</g>
		<g>
			<g>
				<path class="st21" d="M30.19,60.82c0.75,0.49,1.7,0.47,2.57,0.5c0.98,0.03,1.96,0,2.93-0.2c0.52-0.11,0.88-0.66,0.89-1.17
					c0-0.11-0.01-0.22-0.04-0.32c-0.15-0.49-0.63-0.92-1.17-0.89c-0.94,0.05-1.87,0.22-2.81,0.34c-0.81,0.1-1.66,0.1-2.37,0.53
					C29.73,59.89,29.75,60.53,30.19,60.82L30.19,60.82z"/>
			</g>
		</g>
		<g>
			<g>
				<path class="st21" d="M32.38,61.22c1.51,0.25,3.07,0.28,4.58-0.02c1.27-0.26,1-2.36-0.31-2.28c-1.43,0.09-2.89,0.38-4.27,0.74
					C31.65,59.85,31.57,61.09,32.38,61.22L32.38,61.22z"/>
			</g>
		</g>
		<g>
			<g>
				<path class="st21" d="M33.37,61.56c1.3,0.45,2.81,0.46,4.12,0.03c1.15-0.38,1.02-2.26-0.3-2.2c-1.22,0.05-2.37,0.57-3.6,0.52
					C32.61,59.88,32.51,61.26,33.37,61.56L33.37,61.56z"/>
			</g>
		</g>
		<g>
			<g>
				<path class="st21" d="M34.51,61.77c0.5-0.01,1-0.02,1.5-0.04c0.54-0.02,1.1,0.02,1.57-0.28c0.7-0.45,0.54-1.45-0.22-1.71
					c-0.52-0.18-1.08,0-1.6,0.11c-0.49,0.1-0.97,0.21-1.46,0.31C33.38,60.35,33.58,61.79,34.51,61.77L34.51,61.77z"/>
			</g>
		</g>
		<g>
			<g>
				<path class="st21" d="M34.2,60.15c-0.08,0.01-0.17,0.02-0.25,0.03c-0.3,0.03-0.56,0.18-0.64,0.49
					c-0.07,0.26,0.04,0.64,0.31,0.75c0.58,0.25,1.15,0.41,1.76,0.58c0.08-0.56,0.15-1.13,0.23-1.69c-0.52-0.04-1.18-0.22-1.67-0.03
					c-0.51,0.21-0.69,0.76-0.31,1.19c0.44,0.51,1.35,0.56,1.98,0.56c0.47,0,0.86-0.39,0.86-0.86c0-0.51-0.4-0.8-0.86-0.86
					c-0.56-0.07-1.09-0.14-1.65-0.13c0.06,0.44,0.12,0.87,0.18,1.31c0.08-0.02,0.16-0.05,0.25-0.07
					C35.05,61.23,34.95,60.07,34.2,60.15L34.2,60.15z"/>
			</g>
		</g>
		<g>
			<g>
				<path class="st21" d="M35.16,60.51c-0.59-0.02-1.14-0.16-1.72-0.24c-0.48-0.07-1.15-0.02-1.18,0.61
					c-0.06,1.19,2.16,1.11,2.9,1.07C36.08,61.89,36.09,60.53,35.16,60.51L35.16,60.51z"/>
			</g>
		</g>
		<g>
			<g>
				<path class="st21" d="M13.73,55.41c1.24,0.53,3.03,1.46,4.39,0.97c0.65-0.23,0.84-1.13,0.2-1.51c-0.59-0.35-1.23-0.37-1.9-0.44
					c-0.72-0.07-1.41-0.21-2.11-0.41C13.51,53.81,12.92,55.07,13.73,55.41L13.73,55.41z"/>
			</g>
		</g>
		<g>
			<g>
				<path class="st21" d="M13.63,55.63c1.18,0.72,2.77,1.7,4.2,1.32c0.5-0.13,0.77-0.88,0.33-1.24c-1.08-0.87-2.7-0.93-4.01-1.32
					C13.4,54.17,12.98,55.24,13.63,55.63L13.63,55.63z"/>
			</g>
		</g>
		<g>
			<g>
				<path class="st21" d="M13.81,55.6c1.3,1.03,2.92,2.16,4.65,2.13c0.85-0.02,1.15-1.14,0.43-1.58c-1.26-0.79-2.86-1.06-4.22-1.65
					C14.01,54.21,13.13,55.05,13.81,55.6L13.81,55.6z"/>
			</g>
		</g>
		<g>
			<g>
				<path class="st21" d="M14.65,56c1.15,1.12,2.92,2.58,4.64,2.18c0.64-0.15,0.91-1.07,0.4-1.51c-0.59-0.51-1.28-0.65-2-0.9
					c-0.74-0.26-1.47-0.52-2.16-0.89C14.82,54.5,14.05,55.41,14.65,56L14.65,56z"/>
			</g>
		</g>
		<g>
			<g>
				<path class="st21" d="M14.52,55.56c0.1,0.9,0.75,1.43,1.47,1.91c0.79,0.52,1.82,0.99,2.73,0.55c0.37-0.18,0.51-0.75,0.29-1.09
					c-0.45-0.67-1.23-0.83-1.94-1.13c-0.65-0.27-1.24-0.57-1.93-0.71C14.86,55.03,14.48,55.22,14.52,55.56L14.52,55.56z"/>
			</g>
		</g>
		<g>
			<g>
				<path class="st21" d="M14.76,55.72c0.18,0.21,0.34,0.39,0.48,0.63c0.29-0.29,0.58-0.58,0.87-0.87
					c-0.32-0.14-0.61-0.32-0.89-0.53c-0.3-0.21-0.75-0.05-0.92,0.24c-0.21,0.34-0.05,0.7,0.24,0.92c0.33,0.26,0.68,0.41,1.08,0.53
					c0.62,0.17,1.05-0.61,0.62-1.06c-0.28-0.29-0.64-0.55-1.04-0.61C14.75,54.91,14.46,55.37,14.76,55.72L14.76,55.72z"/>
			</g>
		</g>
		<g>
			<g>
				<path class="st21" d="M18.75,54.36c0.86-0.46,1.74-0.77,2.68-1.02c0.83-0.22,1.7-0.28,2.42-0.78c0.34-0.24,0.43-0.81,0-1.03
					c-1.85-0.95-4.35,0.46-5.87,1.52C17.2,53.6,17.88,54.82,18.75,54.36L18.75,54.36z"/>
			</g>
		</g>
		<g>
			<g>
				<path class="st21" d="M25.12,51.24c-1.79-0.37-3.43-0.58-5.19,0.09c-1.16,0.44-2.85,1.37-2.49,2.85
					c0.05,0.21,0.23,0.39,0.44,0.44c1.09,0.26,2.1-0.64,3.06-1.04c1.29-0.53,2.82-0.87,4.19-1.07
					C25.77,52.42,25.73,51.37,25.12,51.24L25.12,51.24z"/>
			</g>
		</g>
		<g>
			<g>
				<path class="st21" d="M19.14,52.55c-0.48,0.18-1.16,0.3-1.48,0.74c-0.35,0.49-0.08,1.03,0.28,1.42
					c0.61,0.66,1.97,1.86,2.86,1.13c0.45-0.37,0.03-0.98-0.43-1.03c-0.53-0.06-0.73-0.85-1.34-0.62c-0.12,0.05-0.18,0.13-0.19,0.25
					c-0.06,0.66,0.75,0.63,0.95,1.13c0.4-0.05,0.79-0.11,1.19-0.16c-0.07-0.63-0.51-0.79-1.02-1.06c-0.22-0.11-0.43-0.24-0.63-0.38
					c-0.12-0.08-0.5-0.29-0.52-0.42c-0.02,0.17-0.04,0.34-0.07,0.51c0.07-0.16,0.7-0.36,0.85-0.44
					C20.17,53.32,19.76,52.32,19.14,52.55L19.14,52.55z"/>
			</g>
		</g>
		<g>
			<g>
				<path class="st21" d="M3.5,35.52c0.57,0.3,1.19,0.48,1.8,0.67c0.63,0.2,1.25,0.53,1.92,0.46c0.48-0.05,1-0.61,0.63-1.09
					C7,34.43,4.94,34.11,3.63,34.52C3.21,34.65,3.07,35.29,3.5,35.52L3.5,35.52z"/>
			</g>
		</g>
		<g>
			<g>
				<path class="st21" d="M3.47,35.72c1.2,0.6,2.62,0.76,3.89,1.2c1.14,0.4,2.25,1.02,3.48,0.71c0.15-0.04,0.25-0.21,0.21-0.36
					c-0.41-1.32-1.7-1.84-2.92-2.23C6.77,34.61,5,34.2,3.61,34.64C3.16,34.78,2.99,35.48,3.47,35.72L3.47,35.72z"/>
			</g>
		</g>
		<g>
			<g>
				<path class="st21" d="M9.68,37.71c0.58,0.36,1.13,0.76,1.55,1.3c0.14-0.54,0.29-1.09,0.43-1.63c-0.36,0.08-0.73-0.02-1.1,0.01
					c-0.43,0.03-0.86,0.11-1.26,0.27c-0.7,0.29-1.17,0.87-1.27,1.62C8,39.59,8.33,39.79,8.59,39.82c0.65,0.08,1.21-0.13,1.84-0.25
					c0.69-0.13,1.34-0.06,1.99-0.41c0.75-0.4,0.56-1.57-0.23-1.78c-0.7-0.19-1.37-0.5-2.05-0.75C9.49,36.39,9.13,37.37,9.68,37.71
					L9.68,37.71z"/>
			</g>
		</g>
		<g>
			<g>
				<path class="st21" d="M7.42,39.92c-0.06,0.57,0.4,0.87,0.45,1.39c0.46-0.35,0.91-0.69,1.37-1.04c-0.82-0.14-1.89-0.15-2.56,0.45
					c-0.73,0.66-0.71,1.91-0.24,2.71c0.4,0.69,1.59,0.79,1.96,0c0.13-0.28,0.24-0.5,0.26-0.82c0.01-0.18-0.05-0.41-0.01-0.58
					c-0.11,0.18-0.21,0.37-0.32,0.55c0.07-0.08,0.72-0.19,0.91-0.23c0.54-0.12,0.94-0.8,0.75-1.33C9.77,40.41,9.45,40,9.1,39.47
					C8.57,38.69,7.51,39.04,7.42,39.92L7.42,39.92z"/>
			</g>
		</g>
		<g>
			<g>
				<path class="st21" d="M7.18,42.26c-1.52,0.27-1.75,1.69-1.41,3c0.62-0.26,1.24-0.52,1.86-0.78c-0.24-0.44-0.48-0.89-0.73-1.33
					c-0.46-0.84-2.03-0.52-1.9,0.52c0.08,0.63,0.18,1.21,0.37,1.82c0.38,1.22,2.17,0.72,1.9-0.52c-0.33-1.57-0.94-3.11-1.46-4.63
					C5.21,40.49,4.6,40.66,4,40.83c0.52,1.28,0.9,2.59,1.27,3.93c0.53-0.22,1.06-0.45,1.6-0.67c-0.89-1.63-1.27-3.36-1.61-5.17
					c-0.58,0.16-1.16,0.32-1.74,0.48c0.34,1.78,0.85,3.5,1.63,5.14c0.49,1.03,1.94,0.13,1.51-0.88c-0.79-1.86-1.77-3.7-2.11-5.71
					c-0.53,0.22-1.07,0.45-1.6,0.67c0.71,1.36,1.5,2.67,2.28,3.98c0.52-0.3,1.03-0.6,1.55-0.9c-0.33-0.5-0.65-1-0.95-1.52
					c-0.14-0.24-0.79-1.76-0.9-1.83c-0.26,0-0.53-0.01-0.79-0.01c0.34,0.23,0.65,0.49,0.92,0.8c0.11,0.12,0.76,1.09,0.8,1.01
					c0.32-0.18,0.63-0.36,0.95-0.54c0.29,0.18,0.21,0.05-0.24-0.39c-0.42-0.22-0.49-0.46-0.2-0.72c0.14-0.27,0.27-0.54,0.41-0.81
					c-0.31,0.44-0.13,0.74,0.53,0.88c-0.04-0.3-0.08-0.61-0.12-0.91c-0.01,0.09-0.03,0.18-0.04,0.27c0.28-0.28,0.55-0.55,0.83-0.83
					c-0.81,0.23-1.62-0.6-2.06-1.14c-0.08,0.62-0.16,1.23-0.24,1.85c0.28,0.17,0.55,0.33,0.82,0.51c0.1-0.38,0.2-0.75,0.3-1.13
					c0,0-1.36-0.43-1.35-0.56c-0.19,0.33-0.38,0.66-0.57,0.99c-0.07,0.04,1.2,0.7,1.19,0.5c0.19-0.33,0.38-0.66,0.57-0.99
					c0.45-0.03,0.37-0.09-0.23-0.18c-0.35-0.05-0.67-0.18-0.95-0.4c-0.1,0.37-0.2,0.75-0.3,1.12c0.04,0.17,0.08,0.33,0.13,0.5
					c0.09-0.7,0.18-1.41,0.28-2.11c-0.12,0.02-0.23,0.04-0.35,0.07c-1.46,0.27-0.84,2.51,0.62,2.23c0.12-0.02,0.23-0.04,0.35-0.07
					c0.93-0.18,1.18-1.72,0.28-2.11c-1.03-0.45-1.96-0.88-2.93-0.13c-0.29,0.23-0.43,0.78-0.3,1.12c0.58,1.46,4.95,3.7,5.14,0.95
					c0.13-1.85-4.16-3.98-5.11-1.93c-1.05,2.25,3.34,3.99,4.89,2.92c2.33-1.61-1.9-4.38-3.66-3.32c-0.71,0.42-0.71,1.26-0.24,1.85
					c0.99,1.24,2.73,2.22,4.35,1.76c0.36-0.1,0.77-0.43,0.83-0.83c0.29-1.82-2.04-3.34-3.76-2.85c-2.22,0.63-1.3,3.31,0.09,4.26
					c1.46,0.99,3.99,0.55,3.46-1.69c-0.43-1.82-2.98-2.61-4.43-1.49c-1.67,1.29-0.57,3.98,1.04,4.8c1.88,0.96,2.57-1.11,1.76-2.51
					c-0.63-1.1-2.74-3.6-4.19-2.4c-1.73,1.43,1.08,4.73,1.82,5.94c0.6,0.98,2.11,0.1,1.55-0.9c-0.75-1.34-1.5-2.67-2.32-3.96
					c-0.55-0.86-1.78-0.29-1.6,0.67c0.4,2.12,1.62,3.87,2.2,5.92c0.56-0.16,1.13-0.31,1.69-0.47c-0.54-1.64-1.09-3.26-1.49-4.94
					c-0.27-1.13-2-0.65-1.74,0.48c0.44,1.92,0.94,3.81,1.84,5.57c0.47,0.91,1.82,0.26,1.6-0.67c-0.32-1.34-0.66-2.66-1.13-3.96
					C5.41,39.2,3.64,39.65,4,40.83c0.46,1.53,1.08,3.08,1.37,4.65c0.63-0.17,1.27-0.35,1.9-0.52c-0.13-0.42-0.21-0.85-0.23-1.29
					c-0.63,0.17-1.27,0.34-1.9,0.52c0.25,0.44,0.49,0.89,0.74,1.33c0.56,1.01,2.16,0.33,1.86-0.78c0.01-0.36,0.02-0.72,0.03-1.07
					C8.51,43.17,8.01,42.12,7.18,42.26L7.18,42.26z"/>
			</g>
		</g>
		<g>
			<g>
				<path class="st21" d="M2.95,35.05c-0.74,1.34-0.24,2.99,0.13,4.4c0.46,1.75,0.96,3.51,1.85,5.1c0.56,1,2.25,0.33,1.88-0.79
					c-0.53-1.62-0.95-3.29-1.42-4.94c-0.38-1.33-0.55-2.89-1.57-3.88C3.57,34.7,3.13,34.74,2.95,35.05L2.95,35.05z"/>
			</g>
		</g>
		<g>
			<g>
				<path class="st21" d="M4.14,35.77c0.65,0.13,1.31,0.31,1.98,0.38c0.13,0.01,0.17-0.18,0.06-0.24c-0.59-0.31-1.27-0.47-1.91-0.6
					C3.96,35.25,3.83,35.71,4.14,35.77L4.14,35.77z"/>
			</g>
		</g>
		<g>
			<g>
				<path class="st21" d="M4.31,36.16c1.35,0.36,2.8,0.94,4.19,0.96c0.14,0,0.26-0.15,0.22-0.28c-0.22-0.64-0.72-0.68-1.33-0.82
					c-0.95-0.21-1.9-0.43-2.86-0.64C4.01,35.26,3.8,36.03,4.31,36.16L4.31,36.16z"/>
			</g>
		</g>
		<g>
			<g>
				<path class="st21" d="M3.49,35.87c1.45,1.27,3.79,1.54,5.6,2.03c0.87,0.24,2.4,1.09,3.06,0.07c0.25-0.38,0.13-0.9-0.16-1.22
					c-0.92-1-2.53-1.11-3.8-1.32c-1.44-0.25-3.14-0.65-4.55-0.14C3.42,35.38,3.28,35.69,3.49,35.87L3.49,35.87z"/>
			</g>
		</g>
		<g>
			<g>
				<path class="st21" d="M6.71,36.71c1.71,0.59,3.38,1.27,5.02,2.03c1.18,0.55,2.22-1.21,1.03-1.76c-1.8-0.84-3.64-1.58-5.51-2.23
					C6,34.31,5.47,36.29,6.71,36.71L6.71,36.71z"/>
			</g>
		</g>
		<g>
			<g>
				<path class="st21" d="M11.96,37.74c-1.32,0.37-2.65,0.62-4.02,0.72c-1.3,0.09-1.31,2.14,0,2.04c1.55-0.11,3.07-0.37,4.56-0.79
					C13.77,39.35,13.23,37.38,11.96,37.74L11.96,37.74z"/>
			</g>
		</g>
		<g>
			<g>
				<path class="st21" d="M7.73,39.34c-0.17,0.88,0.01,2.27,0.94,2.69c0.46,0.21,0.99,0.17,1.31-0.26c0.31-0.41,0.28-0.96-0.08-1.33
					c-0.27-0.28-0.61-0.46-0.67-0.89c-0.05-0.38-0.25-0.7-0.66-0.75C8.22,38.75,7.81,38.96,7.73,39.34L7.73,39.34z"/>
			</g>
		</g>
		<g>
			<g>
				<path class="st21" d="M7.53,40.54c0.1,0.93,0.9,2.33,2.05,1.89c0.56-0.22,0.85-0.78,0.55-1.35c-0.18-0.35-0.59-0.43-0.65-0.8
					C9.28,39.19,7.41,39.43,7.53,40.54L7.53,40.54z"/>
			</g>
		</g>
		<g>
			<g>
				<path class="st21" d="M7.23,41.23c0.47,1.27,2.01,2.15,3.3,1.51c0.66-0.32,0.52-1.22,0-1.58c-0.45-0.31-1.28-0.16-1.54-0.68
					C8.51,39.52,6.85,40.19,7.23,41.23L7.23,41.23z"/>
			</g>
		</g>
		<g>
			<g>
				<path class="st21" d="M10.61,42.02c0.04-0.46-0.38-0.79-0.8-0.82c-0.5-0.04-0.9,0.22-1.29,0.5c-0.73,0.53-1.76,1.56-1.74,2.51
					c0.01,0.86,0.86,1.22,1.58,0.91c0.61-0.27,0.95-1.09,1.37-1.59c0.23-0.28,0.45-0.57,0.64-0.88c0.07-0.11,0.12-0.23,0.18-0.35
					c0.05-0.12,0.05-0.13,0-0.02C10.59,42.2,10.61,42.11,10.61,42.02L10.61,42.02z"/>
			</g>
		</g>
		<g>
			<g>
				<path class="st21" d="M8.81,41.69c-0.91,0.39-1.59,0.86-2.11,1.75c-0.51,0.87-0.97,1.96-0.18,2.81c0.4,0.42,1.03,0.35,1.44,0
					c0.51-0.43,0.66-1.18,0.95-1.76c0.3-0.6,0.54-1.26,0.85-1.84C10.12,41.98,9.43,41.42,8.81,41.69L8.81,41.69z"/>
			</g>
		</g>
		<g>
			<g>
				<path class="st21" d="M7.13,43.21c-1.22,1.36-2.01,3.06-0.2,4.33c0.95,0.66,1.89-0.59,1.46-1.46c-0.28-0.58-0.49-1.2-0.75-1.79
					c-0.4-0.93-2-0.46-1.92,0.52c0.08,0.89,0.25,1.6,0.81,2.32c0.89,1.15,2.52-0.08,1.59-1.23c-0.86-1.06-0.84-2.66-0.89-3.93
					c-0.51,0.14-1.01,0.27-1.52,0.41c0.21,0.36,0.77,1.52,0.46,1.95c0.33-0.13,0.66-0.27,0.99-0.4c-0.07-0.02-0.29-1.75-0.3-1.84
					C6.85,41.31,7,40.59,7.22,39.86c-0.58,0.15-1.16,0.31-1.74,0.46c0.37,0.22,0.61,0.54,0.73,0.97c0.24-0.24,0.49-0.49,0.73-0.73
					c-0.09,0.03-0.17,0.06-0.26,0.09c0.27,0.04,0.54,0.07,0.81,0.11c-0.47-0.27-0.9-1.05-0.9-1.59c-0.43,0.33-0.86,0.65-1.29,0.98
					c0.02,0,0.03,0.01,0.05,0.01c-0.24-0.32-0.49-0.64-0.73-0.97c0,0.01,0,0.03,0,0.04c-0.05,1.05,1.33,1.25,1.84,0.5
					c0.01-0.01,0.02-0.02,0.02-0.03c0.24-0.34,0.16-0.94-0.16-1.21c-0.01-0.01-0.02-0.02-0.04-0.03c-0.5-0.44-1.23-0.38-1.59,0.21
					c-0.88,1.41,1.1,4.51,2.8,3.93c0.32-0.11,0.67-0.37,0.73-0.73c0.22-1.34-0.47-2.38-1.49-3.16c-0.55-0.42-1.37,0.04-1.53,0.62
					c-0.42,1.53-0.73,6.78,1.96,6.31c0.38-0.07,0.63-0.49,0.64-0.85c0.04-1.17-0.2-2.15-0.69-3.21c-0.29-0.64-1.33-0.45-1.49,0.19
					c-0.45,1.88,0.38,3.35,0.79,5.13c0.62-0.26,1.24-0.52,1.85-0.78c-0.24-0.53-0.41-1.01-0.54-1.57c-0.63,0.26-1.25,0.53-1.88,0.79
					c0.28,0.52,0.48,0.98,0.57,1.57c0.69-0.19,1.38-0.38,2.06-0.57c-0.3-0.71-0.47-1.4-0.15-2.17C8.68,43.41,7.78,42.48,7.13,43.21
					L7.13,43.21z"/>
			</g>
		</g>
		<g>
			<g>
				<path class="st21" d="M3.01,35.39c0.03,0.16,0.06,0.32,0.09,0.48c0.19-0.05,0.38-0.1,0.57-0.16c-0.06-0.14-0.09-0.29-0.09-0.45
					c0-0.34-0.38-0.44-0.62-0.26c-0.17,0.14-0.22,0.32-0.31,0.51c0.44,0.12,0.87,0.24,1.31,0.36c-0.03-0.3-0.07-0.6-0.13-0.9
					c-0.45,0.19-0.91,0.38-1.36,0.57c0,0.01,0,0.02,0,0.03c0.48-0.13,0.96-0.26,1.43-0.39c-0.02-0.04-0.05-0.07-0.07-0.11
					c-0.4-0.61-1.32-0.36-1.35,0.37c0,0.04,0,0.09-0.01,0.13c-0.05,1.06,1.69,0.95,1.51-0.2c-0.03-0.21-0.11-0.4-0.23-0.57
					c-0.44-0.67-1.64-0.27-1.36,0.57c0.08,0.23,0.14,0.46,0.18,0.69c0.2,0.99,1.86,0.35,1.29-0.54c-0.14-0.22-0.23-0.43-0.46-0.56
					c-0.17,0.17-0.33,0.33-0.5,0.5c0.08,0.19,0.13,0.32,0.22,0.49c0.16,0.29,0.67,0.09,0.54-0.23c-0.06-0.15-0.12-0.3-0.18-0.45
					C3.37,34.96,2.95,35.07,3.01,35.39L3.01,35.39z"/>
			</g>
		</g>
		<g>
			<g>
				<path class="st21" d="M13.9,30.19c-3.44-1.28-8.23,1.45-10.9,3.45c0.37,0.48,0.75,0.97,1.12,1.45c0.93-0.81,1.88-1.54,2.96-2.12
					c0.8-0.43,1.59-0.7,2.25-1.34c0.16-0.15,0.09-0.46-0.13-0.51c-2.2-0.48-4.79,1.33-6.39,2.66c-0.8,0.66,0.28,2.09,1.12,1.45
					c1.63-1.24,3.37-2.24,5.3-2.94c1.56-0.56,3.3-0.68,4.74-1.49C14.25,30.65,14.16,30.28,13.9,30.19L13.9,30.19z"/>
			</g>
		</g>
		<g>
			<g>
				<path class="st21" d="M10.9,30.29c-2.71-0.21-8.3,0.82-8.64,4.18c0.55,0,1.11,0,1.66,0c0.02-0.28,0.06-0.55,0.09-0.83
					c-0.55,0-1.1,0-1.64,0c-0.05,0.26-0.11,0.53-0.16,0.79c0.55,0.08,1.11,0.15,1.66,0.23c0.03-0.23,0.06-0.46,0.09-0.69
					c0.27-1.13-1.44-1.61-1.74-0.48c-0.02,0.07-0.04,0.13-0.05,0.2c0.59,0,1.18,0,1.76,0c-0.01,0.05-0.01,0.1-0.02,0.15
					C3.62,33.92,3.31,34,3,34.08c0.09,0.02,0.17,0.03,0.26,0.05c0.08-0.63,0.17-1.25,0.25-1.88c0.07,0.05,0.15,0.1,0.22,0.14
					c-0.06,0.5-0.13,1.01-0.19,1.51c0.1-0.05,0.2-0.1,0.31-0.15c-0.49-0.28-0.97-0.56-1.46-0.84c-0.01,0.09-0.02,0.17-0.03,0.26
					c0.49-0.28,0.97-0.56,1.46-0.84c-0.02-0.02-0.05-0.04-0.07-0.05c0.16,0.28,0.32,0.56,0.48,0.84c0-0.03,0-0.07,0.01-0.1
					c-0.16,0.28-0.32,0.56-0.48,0.84c0.41-0.23,1.05-0.38,1.49-0.55c1.03-0.4,0.64-2.03-0.47-1.7c-0.11,0.03-0.22,0.07-0.34,0.1
					c0.15,0.55,0.3,1.1,0.45,1.65c0.31-0.1,0.54-0.2,0.83-0.35c0.82-0.42,0.25-1.73-0.62-1.47c-0.09,0.03-0.18,0.05-0.27,0.08
					c0.14,0.51,0.28,1.02,0.42,1.53c0.57-0.2,0.83-0.3,1.02-0.9c0.04-0.13,0-0.29-0.1-0.38c-0.46-0.41-0.73-0.38-1.34-0.25
					c-1,0.21-0.57,1.7,0.42,1.53c0.09-0.02,0.19-0.03,0.28-0.05c-0.14-0.52-0.29-1.04-0.43-1.56c-0.21,0.09-0.43,0.15-0.66,0.17
					c-1.09,0.19-0.62,1.81,0.45,1.65c0.12-0.02,0.23-0.04,0.35-0.05c-0.16-0.57-0.31-1.13-0.47-1.7c-0.76,0.15-2.03,0.19-2.4,1.03
					c-0.24,0.55,0.01,1.05,0.47,1.37c0.65,0.45,1.41-0.16,1.46-0.84c0.01-0.09,0.01-0.17,0.02-0.26c0.06-0.78-0.85-1.15-1.46-0.84
					c-0.1,0.05-0.2,0.1-0.3,0.16c-0.5,0.26-0.68,1.14-0.19,1.51c0.5,0.38,0.77,0.46,1.4,0.37c0.92-0.13,0.91-1.7,0-1.84
					c-1.24-0.19-1.88,0.69-1.59,1.88c0.2,0.83,1.62,0.91,1.76,0c0.01-0.07,0.02-0.14,0.03-0.2c-0.59-0.08-1.18-0.16-1.78-0.24
					c-0.07,0.31-0.07,0.62-0.01,0.93c0.08,0.89,1.43,1.22,1.66,0.23c0.12-0.49,0.15-0.74,0.17-1.24c0.04-1.08-1.52-1.02-1.64,0
					c-0.03,0.2-0.05,0.41-0.08,0.61c-0.15,1.03,1.39,1.51,1.6,0.44c0.28-1.37,2.31-1.84,3.41-2.29c1.22-0.49,2.48-0.84,3.7-1.33
					C11.42,30.91,11.37,30.33,10.9,30.29L10.9,30.29z"/>
			</g>
		</g>
		<g>
			<g>
				<path class="st21" d="M11.9,30.06c-2.64,0.1-6.97,0.55-8.49,3.06c-0.08,0.13,0.02,0.32,0.18,0.31c1.37-0.08,2.62-0.87,3.89-1.34
					c1.48-0.54,2.99-0.92,4.55-1.14C12.53,30.88,12.4,30.04,11.9,30.06L11.9,30.06z"/>
			</g>
		</g>
		<g>
			<g>
				<path class="st21" d="M10.98,29.83c-2.69,0.22-6.81,0.68-8.73,2.81C2,32.91,2.16,33.4,2.56,33.39c1.39-0.03,2.74-0.74,4.05-1.17
					c1.49-0.49,3.01-0.89,4.53-1.25C11.76,30.82,11.64,29.77,10.98,29.83L10.98,29.83z"/>
			</g>
		</g>
		<g>
			<g>
				<path class="st21" d="M4.95,41.28c0.18,0.74,0.32,1.51,0.53,2.24c0.15,0.51,0.27,1.13,0.83,1.3c0.1,0.03,0.21,0,0.29-0.08
					c0.42-0.4,0.24-1.06,0.13-1.57c-0.15-0.75-0.35-1.5-0.53-2.24C6,40.13,4.76,40.47,4.95,41.28L4.95,41.28z"/>
			</g>
		</g>
		<g>
			<g>
				<path class="st21" d="M7.11,45.48c-0.03-0.33-0.03-0.66-0.03-0.98c0-0.2,0-0.4,0.02-0.6c0-0.09,0.01-0.18,0.03-0.26
					c0.15-0.47-0.17-0.36-0.94,0.3c0.6,0.18,1.34-0.33,1.29-0.99c-0.02-0.36-0.05-0.71-0.05-1.07c0-0.19,0.04-0.4,0.02-0.58
					c-0.02-0.19,0.24-0.36-0.08-0.12c-0.47-0.12-0.93-0.24-1.4-0.37c0.33,0.68,0.43,1.39,0.28,2.14c0.62-0.08,1.24-0.16,1.87-0.24
					c-0.23-0.37-0.22-0.71-0.21-1.13c0.03-1.32-2.01-1.32-2.04,0c-0.02,0.78,0.06,1.49,0.48,2.16c0.44,0.69,1.69,0.66,1.87-0.24
					c0.26-1.31,0.1-2.51-0.48-3.71c-0.22-0.45-0.98-0.68-1.4-0.37c-1.11,0.85-0.99,2.26-0.9,3.53c0.43-0.33,0.86-0.66,1.29-0.99
					c-1.86-0.56-1.76,2.45-1.67,3.52C5.18,46.78,7.22,46.8,7.11,45.48L7.11,45.48z"/>
			</g>
		</g>
		<g>
			<g>
				<path class="st21" d="M4.7,42.72c0.1,1.01,0.25,2.02,0.47,3.01c0.66-0.18,1.31-0.36,1.97-0.54c-0.09-0.33-0.17-0.66-0.26-0.99
					c-0.28-1.08-2.16-0.9-2.01,0.27c0.03,0.26,0.07,0.52,0.1,0.78C5.05,45.8,5.39,46.27,6,46.27c0.5,0,1.09-0.47,1.02-1.02
					c-0.03-0.26-0.07-0.52-0.1-0.78c-0.67,0.09-1.34,0.18-2.01,0.27c0.09,0.33,0.17,0.66,0.26,0.99c0.34,1.28,2.25,0.74,1.97-0.54
					c-0.18-0.82-0.32-1.64-0.4-2.47c-0.05-0.55-0.43-1.02-1.02-1.02C5.21,41.7,4.65,42.17,4.7,42.72L4.7,42.72z"/>
			</g>
		</g>
		<g>
			<g>
				<path class="st21" d="M6.9,39.54c-0.01,0.5,0.01,0.97,0.23,1.42c0.26,0.55,1.12,0.26,1.11-0.3c0-0.38-0.1-0.74-0.12-1.12
					C8.08,38.76,6.92,38.76,6.9,39.54L6.9,39.54z"/>
			</g>
		</g>
		<g>
			<g>
				<path class="st21" d="M4.37,35.76c1.05,0.08,2.41,0.76,3.36,1.22c0.78,0.38,1.63,1.05,2.53,0.75c0.16-0.05,0.33-0.18,0.36-0.36
					c0.22-1.41-1.29-2.09-2.4-2.5c-1.28-0.48-2.9-0.99-4.2-0.42C3.32,34.75,3.75,35.71,4.37,35.76L4.37,35.76z"/>
			</g>
		</g>
		<g>
			<g>
				<path class="st21" d="M5.4,36.15c1.14-0.33,2.33,0.56,3.31,1.04c0.99,0.49,1.98,0.97,2.97,1.46c1.18,0.58,2.21-1.18,1.03-1.76
					c-1.42-0.7-2.83-1.4-4.25-2.1c-1.18-0.58-2.3-0.99-3.61-0.61C3.6,34.54,4.13,36.52,5.4,36.15L5.4,36.15z"/>
			</g>
		</g>
		<g>
			<g>
				<path class="st21" d="M10.27,37.87c0.53,0.44,1.07,0.75,1.7,1.02c0.51,0.21,1.12-0.23,1.26-0.71c0.16-0.59-0.2-1.05-0.71-1.26
					c-0.28-0.12-0.57-0.3-0.8-0.49c-0.43-0.35-1.03-0.42-1.44,0C9.9,36.78,9.84,37.51,10.27,37.87L10.27,37.87z"/>
			</g>
		</g>
		<g>
			<g>
				<path class="st21" d="M3.55,35.62c2.97,0.33,5.59,1.72,8.14,3.19c1.14,0.66,2.17-1.11,1.03-1.76c-2.9-1.67-5.82-3.1-9.18-3.47
					C2.24,33.44,2.25,35.48,3.55,35.62L3.55,35.62z"/>
			</g>
		</g>
		<g>
			<g>
				<path class="st21" d="M11.72,38.13c-0.9-0.09-1.72-0.02-2.53,0.45c-0.82,0.48-1.58,1.17-1.62,2.17
					c-0.05,1.05,1.31,1.24,1.84,0.5c0.57-0.81,1.53-1.55,2.48-1.88C12.59,39.13,12.42,38.2,11.72,38.13L11.72,38.13z"/>
			</g>
		</g>
		<g>
			<g>
				<path class="st21" d="M8.19,39.73c-0.49,0.59-0.16,1.48,0.08,2.13c0.15,0.4,0.34,0.75,0.73,0.95c0.37,0.18,0.81,0.15,1.12-0.15
					c0.58-0.58,0.05-1.39-0.26-1.95c-0.17-0.32-0.38-0.69-0.65-0.93C8.96,39.57,8.45,39.43,8.19,39.73L8.19,39.73z"/>
			</g>
		</g>
		<g>
			<g>
				<path class="st21" d="M8.37,40.96c0.14,0.71,0.65,1.44,1.13,1.97c0.75,0.83,2.21-0.27,1.56-1.21c-0.4-0.59-0.99-1.26-1.65-1.57
					C8.84,39.89,8.24,40.33,8.37,40.96L8.37,40.96z"/>
			</g>
		</g>
		<g>
			<g>
				<path class="st21" d="M9.83,41.52c-0.72,0.48-1.44,1-2.02,1.64c-0.57,0.63-1.23,1.4-1.16,2.31c0.04,0.46,0.5,0.99,1.02,0.78
					c0.79-0.32,1.18-0.95,1.67-1.6c0.47-0.63,0.94-1.26,1.47-1.84C11.41,42.15,10.63,40.99,9.83,41.52L9.83,41.52z"/>
			</g>
		</g>
		<g>
			<g>
				<path class="st21" d="M7.18,41.98c0,0.4,0.05,0.92-0.18,1.27c0.3,0.08,0.59,0.16,0.89,0.24c0.01-0.82-0.24-1.64-0.3-2.46
					c-0.44,0-0.88,0-1.31,0c0.06,0.66,0.19,1.31,0.21,1.97c0.04,0.95,1.45,0.95,1.48,0c0.01-0.52-0.03-1.04-0.06-1.56
					c-0.34,0.26-0.67,0.51-1.01,0.77c0.03,0,0.06,0.01,0.09,0.01c-0.16-0.12-0.32-0.24-0.48-0.37c0.26,0.4,0.06,0.91,0.36,1.3
					c0.34,0.44,0.88,0.45,1.21,0c0.33-0.44,0.18-1.07,0.04-1.56c-0.16-0.55-0.42-0.87-1.01-0.95c-0.4-0.05-0.83,0.41-0.8,0.8
					c0.05,0.59,0.1,1.18,0.21,1.76c0.48-0.07,0.97-0.13,1.45-0.2c-0.09-0.72-0.16-1.46-0.4-2.15c-0.27-0.79-1.53-0.46-1.27,0.35
					c0.26,0.78,0.34,1.65,0.65,2.41c0.18,0.44,0.99,0.46,0.94-0.13c-0.05-0.5-0.01-1-0.07-1.51C7.77,41.58,7.18,41.56,7.18,41.98
					L7.18,41.98z"/>
			</g>
		</g>
		<g>
			<g>
				<path class="st21" d="M31.18,43.88c-1.32,2.03-2.45,4.14-3.64,6.26c-0.65,1.15,1.02,2.08,1.74,1.02
					c0.74-1.07,1.38-2.22,1.87-3.43c0.52-1.27,0.67-2.31,0.78-3.65C31.97,43.66,31.38,43.57,31.18,43.88L31.18,43.88z"/>
			</g>
		</g>
		<g>
			<g>
				<path class="st21" d="M29.11,47.94c-0.38,0.8-0.85,1.52-1.29,2.28c-0.54,0.94,1.03,1.65,1.38,0.58
					c0.06-0.18,0.08-0.31,0.07-0.49c-0.04-0.39-0.33-0.62-0.72-0.55c-0.18,0.03-0.3,0.09-0.46,0.19c0.35,0.35,0.69,0.69,1.04,1.04
					c0.44-0.83,0.71-1.75,0.94-2.65C30.2,47.79,29.37,47.39,29.11,47.94L29.11,47.94z"/>
			</g>
		</g>
		<g>
			<g>
				<path class="st21" d="M29.43,49.19c-1.14-0.21-2.13,0.54-3.09,1.05c-0.87,0.46-2.34,0.96-2.52,2.07
					c-0.04,0.23,0.03,0.45,0.23,0.58c1.01,0.61,2.32-0.23,3.19-0.75c0.95-0.56,2.27-1.21,2.5-2.39
					C29.79,49.52,29.68,49.23,29.43,49.19L29.43,49.19z"/>
			</g>
		</g>
		<g>
			<g>
				<path class="st21" d="M31.49,49.02c0.38,0,0.38-0.59,0-0.59C31.11,48.43,31.11,49.02,31.49,49.02L31.49,49.02z"/>
			</g>
		</g>
		<g>
			<g>
				<path class="st21" d="M18.73,52.55c-0.52,0.46-1.06,1.02-0.93,1.77c0.09,0.52,0.85,0.56,1.09,0.14
					c0.11-0.18,0.15-0.39,0.26-0.56c0.12-0.18,0.28-0.33,0.43-0.49C20.15,52.85,19.32,52.04,18.73,52.55L18.73,52.55z"/>
			</g>
		</g>
		<g>
			<g>
				<path class="st21" d="M19.48,52.45c-0.55-0.11-1.22-0.06-1.65,0.33c-0.23,0.21-0.43,0.5-0.52,0.8c-0.14,0.47,0,0.82,0.29,1.18
					c0.28,0.35,0.94,0.32,1.22,0c0.25-0.28,0.28-0.49,0.38-0.83c0.06-0.19,0.08-0.24,0.27-0.28C20.07,53.52,20.08,52.57,19.48,52.45
					L19.48,52.45z"/>
			</g>
		</g>
		<g>
			<g>
				<path class="st21" d="M19.09,52.44c-0.55,0.05-1.15,0.25-1.49,0.71c-0.45,0.61-0.38,1.57,0.16,2.1
					c0.51,0.51,1.45,0.43,1.66-0.33c0.1-0.37-0.11-0.68-0.12-1.04c0,0,0.03-0.26,0.03-0.26c-0.04,0.07-0.06,0.09,0.09,0.01
					C19.95,53.34,19.72,52.39,19.09,52.44L19.09,52.44z"/>
			</g>
		</g>
		<g>
			<g>
				<path class="st21" d="M14.63,56.03c0.17,0.22,0.37,0.39,0.62,0.52c0.98,0.52,1.58-1.14,0.57-1.34
					c-0.15-0.03-0.31-0.06-0.46-0.09c-0.4-0.08-0.88,0.27-0.72,0.72c0.09,0.24,0.2,0.42,0.37,0.61c0.3-0.39,0.6-0.78,0.91-1.18
					c-0.03-0.01-0.05-0.03-0.08-0.04c0.07,0.12,0.14,0.24,0.21,0.35c-0.01-0.04-0.02-0.08-0.03-0.12c-0.56,0-1.13,0-1.69,0
					c-0.09,0.42,0.02,0.69,0.24,1.03c0.38-0.5,0.76-0.99,1.15-1.49c-0.07,0-0.13-0.03-0.18-0.08c-1-0.58-2.2,0.85-1.27,1.65
					c0.22,0.19,0.43,0.31,0.7,0.41c0.53,0.21,1.16-0.23,1.3-0.74c0.16-0.6-0.2-1.09-0.74-1.3c0-0.01,0.01-0.02,0.01-0.03
					c-0.27,0.64-0.54,1.28-0.81,1.92c0.15,0.06,0.29,0.1,0.45,0.13c0.99,0.17,1.69-0.9,0.99-1.7c-0.05-0.07-0.12-0.13-0.19-0.18
					c-0.36-0.31-0.78-0.36-1.21-0.16c-0.01,0.01-0.03,0.01-0.04,0.02c-0.69,0.33-0.49,1.43,0.21,1.6c0.2,0.05,0.39,0.1,0.6,0.13
					c0.4,0.05,0.75-0.38,0.75-0.75c0-0.44-0.34-0.71-0.75-0.75c-0.06-0.02-0.12-0.03-0.18-0.05c-0.19,0.33-0.38,0.65-0.57,0.98
					c0.1,0.12,0.21,0.23,0.31,0.35c0.24-0.41,0.48-0.82,0.72-1.23c-0.16-0.05-0.27-0.09-0.41-0.18
					C14.74,54.61,14.2,55.49,14.63,56.03L14.63,56.03z"/>
			</g>
		</g>
		<g>
			<g>
				<path class="st21" d="M11.27,38.53c-0.07-0.24-0.11-0.28-0.11-0.12c-0.01,0.06-0.02,0.13-0.02,0.19
					c-0.03,0.46,0.53,0.75,0.91,0.52c1.04-0.64,0.13-2.08-0.94-1.77C10.49,37.53,10.58,38.62,11.27,38.53L11.27,38.53z"/>
			</g>
		</g>
		<g>
			<g>
				<path class="st21" d="M11.46,38.33c-0.09-0.02,0.01-0.23-0.09-0.21c-0.06,0.01-0.17,0.24-0.19,0.29
					c-0.34,0.68,0.22,1.33,0.93,1.21c0.7-0.12,1.1-0.98,0.82-1.62c-0.21-0.49-0.8-0.81-1.32-0.76
					C11.01,37.28,10.81,38.15,11.46,38.33L11.46,38.33z"/>
			</g>
		</g>
		<g>
			<g>
				<path class="st21" d="M11.57,38.21c0.02-0.02,0.04-0.03,0.06-0.05c0.07-0.12,0.14-0.24,0.21-0.35
					c-0.05,0.06-0.41,0.65-0.23,0.37c-0.14,0.22-0.28,0.37-0.38,0.62c-0.22,0.55,0.34,1.2,0.89,1.17c0.79-0.04,1.26-0.67,1.21-1.45
					c-0.04-0.64-0.69-1.04-1.26-1.18C11.59,37.23,11.19,37.84,11.57,38.21L11.57,38.21z"/>
			</g>
		</g>
		<g>
			<g>
				<path class="st21" d="M11.83,38.22c0.01-0.23,0-0.27-0.05-0.12c0.03,0.03,0.02,0.06-0.03,0.11c-0.06,0.15-0.16,0.27-0.23,0.41
					c-0.34,0.74,0.34,1.4,1.08,1.08c1.05-0.46,0.96-2.34-0.35-2.21C11.89,37.52,11.63,37.88,11.83,38.22L11.83,38.22z"/>
			</g>
		</g>
		<g>
			<g>
				<path class="st21" d="M11.77,38.25c-0.11-0.09,0.07-0.49-0.07-0.15c-0.03,0.06-0.04,0.14-0.07,0.21
					c-0.13,0.28-0.28,0.5-0.27,0.83c0.01,0.46,0.37,0.81,0.83,0.83c0.85,0.04,1.48-0.91,1.31-1.7c-0.14-0.65-0.68-1.01-1.32-1.01
					C11.72,37.27,11.37,37.93,11.77,38.25L11.77,38.25z"/>
			</g>
		</g>
		<g>
			<g>
				<path class="st21" d="M11.88,37.68c-0.02,0.04-0.15,0.39-0.21,0.49c-0.07,0.13-0.19,0.28-0.26,0.43
					c-0.22,0.48-0.05,0.99,0.47,1.16c0.8,0.27,1.56-0.43,1.63-1.21c0.06-0.76-0.54-1.34-1.28-1.23
					C12.06,37.34,11.93,37.52,11.88,37.68L11.88,37.68z"/>
			</g>
		</g>
		<g>
			<g>
				<path class="st21" d="M9.64,38.42c-0.13-0.05-1.02-0.32-1.05-0.48c0.01,0.08,0.76,0.09,0.23,0.32c-0.13,0.06-0.4-0.01-0.52-0.03
					c-0.22-0.05-1.37-0.6-1.23-0.95c-0.13,0.16-0.25,0.33-0.38,0.49c-0.29,0-0.3,0.06-0.03,0.2c0.13,0.08,0.18,0.19,0.16,0.34
					c0.08-0.2,0.16-0.4,0.25-0.59c-0.04,0.03-0.07,0.06-0.11,0.1c0.2-0.08,0.4-0.16,0.59-0.25c-0.24,0.02-0.6-0.51-0.52-0.73
					c-0.2,0.2-0.4,0.4-0.6,0.6c0.03-0.01,0.06-0.01,0.09-0.02c-0.22-0.03-0.44-0.06-0.66-0.09c0.22,0.1,0.53,0.4,0.5,0.67
					c0.08-0.2,0.17-0.4,0.25-0.61c-0.03,0.02-0.06,0.05-0.08,0.07c0.35-0.05,0.7-0.09,1.05-0.14c-0.37-0.22-0.7-0.86-0.92-1.22
					c-0.41,0.41-0.83,0.83-1.24,1.24c0.91,0.52,1.5-0.08,1.33-1.02c-0.22-1.23-2.34-0.52-1.65,0.7c0.41,0.74,1,1.59,1.81,1.89
					c0.26,0.1,0.67,0,0.84-0.22c0.85-1.06-0.42-3.21-1.78-2.91c-0.29,0.06-0.52,0.32-0.6,0.6c-0.3,0.99,0.4,2.15,1.25,2.64
					c1.01,0.59,2.2-0.09,1.82-1.3c-0.27-0.88-1.48-1.93-2.45-1.45c-1.09,0.55-0.42,1.89,0.18,2.52c0.67,0.7,1.89,1.22,2.85,0.86
					c0.88-0.32,1.11-1.27,0.54-1.99c-0.36-0.46-1.39-0.78-1.64-0.01c-0.24,0.76,1.11,1.07,1.6,1.22C9.8,38.95,9.91,38.52,9.64,38.42
					L9.64,38.42z"/>
			</g>
		</g>
		<g>
			<g>
				<path class="st21" d="M7.08,40.67c0.13,0,0.03-0.07,0.01-0.17C7.06,40.37,7,40.23,6.97,40.1c-0.08-0.28-0.13-0.55-0.18-0.83
					c-0.4,0.11-0.8,0.22-1.2,0.33c0.22,0.74,0.45,1.58,0.43,2.35c0.51-0.07,1.02-0.14,1.53-0.21c-0.15-0.6-0.4-1.17-0.55-1.78
					c-0.51,0.14-1.02,0.28-1.53,0.42c0.13,0.39,0.2,0.78,0.23,1.19c0.56-0.08,1.13-0.15,1.69-0.23c-0.25-0.6-0.56-1.7-1.45-1.46
					c-0.92,0.25-0.45,1.35-0.21,1.91c0.43,1.01,1.86,0.66,1.66-0.46c-0.09-0.48-0.23-0.93-0.4-1.38c-0.35-0.95-1.76-0.59-1.53,0.42
					c0.15,0.66,0.32,1.37,0.65,1.96c0.42,0.76,1.72,0.25,1.43-0.6c-0.29-0.81-0.45-1.66-0.76-2.48c-0.28-0.76-1.33-0.46-1.2,0.33
					c0.13,0.84,0.37,2.33,1.5,2.31C7.87,41.88,7.87,40.67,7.08,40.67L7.08,40.67z"/>
			</g>
		</g>
		<path class="st22" d="M32.65,77.02c0-0.02,0-0.04,0-0.06"/>
		<path class="st22" d="M39.03,67.69"/>
		<g>
			<g>
				<path class="st21" d="M29.85,37.32c-1.36-0.68-3.45,1.48-3.45,2.81c0,0.96,0.83,1.51,1.54,1.98c0.89,0.59,1.77,1.23,2.69,1.78
					c0.76,0.45,2-0.32,1.63-1.25c-0.28-0.69-0.68-1.08-1.29-1.49c-0.43-0.29-0.88-0.54-1.32-0.81c-0.22-0.13-0.44-0.27-0.66-0.4
					c-0.3-0.3-0.4-0.29-0.31,0.04c-0.02,0.34,0.05,0.33,0.21-0.04c0.14-0.2,0.28-0.4,0.44-0.59c0.22-0.27,0.47-0.52,0.62-0.83
					C30.1,38.21,30.26,37.53,29.85,37.32L29.85,37.32z"/>
			</g>
		</g>
		<g>
			<g>
				<path class="st21" d="M28.77,37.04c-0.61,0.26-1.17,0.7-1.48,1.3c-0.15,0.3-0.25,0.62-0.22,0.96c0.02,0.23,0.11,0.33,0.21,0.51
					c-0.12-0.22,0.08,0.12,0.14,0.17c0.18,0.14,0.35,0.11,0.55,0.04c0.03-0.03,0.07-0.05,0.1-0.08c-0.15,0.08-0.13,0.07,0.08-0.02
					c0.14-0.11,0.24-0.23,0.34-0.37c0.37-0.51,0.59-1.05,1.1-1.45c0.26-0.21,0.24-0.64,0.05-0.88
					C29.41,36.92,29.08,36.9,28.77,37.04L28.77,37.04z"/>
			</g>
		</g>
		<g>
			<g>
				<path class="st21" d="M28.65,37.13c-0.52,0.39-1.14,0.89-1.1,1.61c0.02,0.32,0.33,0.49,0.61,0.35c0.48-0.23,0.77-0.73,1.18-1.06
					C29.85,37.63,29.18,36.74,28.65,37.13L28.65,37.13z"/>
			</g>
		</g>
		<g>
			<g>
				<path class="st21" d="M29.34,41.63c0.31,1,0.45,2.01,0.45,3.06c0,0.87-0.24,1.78,0.06,2.62c0.11,0.32,0.47,0.41,0.72,0.19
					c1.66-1.46,0.72-4.69-0.03-6.37C30.23,40.45,29.12,40.93,29.34,41.63L29.34,41.63z"/>
			</g>
		</g>
		<g>
			<g>
				<path class="st21" d="M28.36,40.92c0.83,1.3,1.47,2.67,1.5,4.24c0.02,1.16-0.6,2.19-0.54,3.33c0.01,0.22,0.23,0.45,0.47,0.36
					c1.34-0.49,1.66-2.15,1.64-3.45c-0.03-1.88-0.94-3.61-2.03-5.09C28.95,39.7,27.93,40.25,28.36,40.92L28.36,40.92z"/>
			</g>
		</g>
		<g>
			<g>
				<path class="st21" d="M28.41,41.32c0.51,1.13,0.85,2.31,0.98,3.54c0.1,0.94,0.03,1.88,0.36,2.77c0.11,0.29,0.5,0.38,0.67,0.09
					c1.19-2.03-0.04-5.09-1.04-6.97C29.04,40.11,28.12,40.68,28.41,41.32L28.41,41.32z"/>
			</g>
		</g>
		<g>
			<g>
				<path class="st21" d="M27.89,41.47c0.64,0.55,1.13,1.18,1.57,1.9c0.4,0.65,0.72,1.28,1.26,1.82c0.14,0.13,0.38,0.07,0.43-0.11
					c0.51-1.84-1.17-3.56-2.53-4.56C28.07,40.11,27.37,41.02,27.89,41.47L27.89,41.47z"/>
			</g>
		</g>
		<g>
			<g>
				<path class="st21" d="M28.41,41.68c0.5,0.68,0.94,1.39,1.3,2.15c0.33,0.69,0.53,1.28,1.14,1.75c0.14,0.11,0.34-0.01,0.39-0.16
					c0.47-1.52-1.02-3.34-1.9-4.46C28.93,40.44,28.01,41.14,28.41,41.68L28.41,41.68z"/>
			</g>
		</g>
		<g>
			<g>
				<path class="st21" d="M28.29,41.87c0.51,0.68,0.95,1.39,1.3,2.16c0.3,0.64,0.51,1.34,1.24,1.57c0.15,0.05,0.29-0.03,0.37-0.15
					c0.48-0.69,0.05-1.53-0.32-2.18c-0.44-0.79-0.99-1.51-1.59-2.18C28.82,40.57,27.85,41.29,28.29,41.87L28.29,41.87z"/>
			</g>
		</g>
		<g>
			<g>
				<path class="st21" d="M28.04,41.68c0.61,0.95,1.01,2.01,1.53,3c0.23,0.43,0.83,1.5,1.47,1.14c0.74-0.42,0.3-1.79,0.05-2.35
					c-0.46-1.04-1.17-1.84-2.01-2.59C28.55,40.4,27.61,41.02,28.04,41.68L28.04,41.68z"/>
			</g>
		</g>
		<g>
			<g>
				<path class="st21" d="M28.37,41.17c1.49,2.46,1.33,5.12-0.52,7.27c-1.25,1.45-3.08,2.6-3.97,4.28
					c-0.12,0.23,0.02,0.59,0.32,0.56c2.54-0.24,5.56-3.15,6.57-5.39c1.13-2.5,0.03-5.36-1.69-7.27
					C28.73,40.23,28.1,40.73,28.37,41.17L28.37,41.17z"/>
			</g>
		</g>
		<g>
			<g>
				<path class="st21" d="M29.98,47.14c-1.04,1.46-2.37,2.6-3.88,3.54c-1.24,0.77-2.53,1.31-3.58,2.33
					c-0.17,0.17-0.06,0.55,0.21,0.52c3.24-0.39,6.46-3.18,8.23-5.82C31.37,47.1,30.4,46.55,29.98,47.14L29.98,47.14z"/>
			</g>
		</g>
		<g>
			<g>
				<path class="st21" d="M11.31,37.89c-0.97,0.37-1.77,0.98-2.58,1.61c-0.86,0.66-1.64,1.32-2.27,2.21
					c-0.5,0.71,0.45,1.5,1.13,1.13c0.91-0.5,1.64-1.21,2.37-1.93c0.71-0.7,1.43-1.39,1.93-2.26C12.09,38.29,11.74,37.73,11.31,37.89
					L11.31,37.89z"/>
			</g>
		</g>
		<g>
			<g>
				<path class="st21" d="M10.4,38.39c-0.76,0.68-1.54,1.33-2.35,1.95c-0.64,0.48-1.49,0.97-1.7,1.79c-0.08,0.3,0.14,0.54,0.43,0.57
					c0.89,0.08,1.7-0.68,2.35-1.2c0.81-0.64,1.59-1.32,2.35-2.03C12.19,38.79,11.12,37.74,10.4,38.39L10.4,38.39z"/>
			</g>
		</g>
		<g>
			<g>
				<path class="st21" d="M9.9,39.8c0.44,0,0.44-0.69,0-0.69C9.46,39.11,9.45,39.8,9.9,39.8L9.9,39.8z"/>
			</g>
		</g>
		<g>
			<g>
				<path class="st21" d="M6.69,31.92c-1.04,0.72-1.94,1.67-2.41,2.87c-0.33,0.84-0.73,2.59,0.48,2.89
					c0.17,0.04,0.39-0.02,0.47-0.19c0.34-0.68,0.32-1.54,0.61-2.27c0.36-0.9,0.91-1.64,1.65-2.27C8.05,32.47,7.3,31.5,6.69,31.92
					L6.69,31.92z"/>
			</g>
		</g>
		<g>
			<g>
				<path class="st21" d="M5.03,33.01c-0.46,0.9-0.7,1.88-0.63,2.9c0.06,0.81,0.32,2.01,1.28,2.17c0.28,0.05,0.47-0.07,0.58-0.33
					c0.27-0.63-0.1-1.33-0.2-1.96c-0.13-0.77,0.01-1.51,0.3-2.23C6.67,32.81,5.4,32.28,5.03,33.01L5.03,33.01z"/>
			</g>
		</g>
		<g>
			<g>
				<path class="st21" d="M29.78,38.35c-0.06-0.22-0.09-0.3-0.3-0.37c-0.03-0.01-0.06,0-0.09,0.02c-0.16,0.16-0.14,0.25-0.09,0.48
					C29.37,38.79,29.87,38.65,29.78,38.35L29.78,38.35z"/>
			</g>
		</g>
		<g>
			<g>
				<path class="st21" d="M28.93,37.25c-0.45,0.21-0.88,0.49-1.24,0.83c-0.41,0.38-0.52,0.75-0.49,1.29
					c0.02,0.27,0.28,0.43,0.53,0.3c0.38-0.19,0.61-0.33,0.88-0.68c0.25-0.32,0.52-0.61,0.84-0.85
					C29.99,37.75,29.54,36.96,28.93,37.25L28.93,37.25z"/>
			</g>
		</g>
		<g>
			<g>
				<path class="st21" d="M28.95,37.24c-0.74,0.12-1.38,0.46-1.85,1.05c-0.48,0.59-0.86,1.42-0.49,2.16
					c0.21,0.42,0.77,0.42,1.08,0.14c0.37-0.34,0.49-0.89,0.75-1.31c0.24-0.39,0.55-0.79,0.92-1.06
					C29.87,37.85,29.56,37.14,28.95,37.24L28.95,37.24z"/>
			</g>
		</g>
		<g>
			<g>
				<path class="st21" d="M28.79,36.89c-0.84,0.51-1.98,1.59-1.48,2.66c0.15,0.31,0.59,0.39,0.87,0.23c0.38-0.22,0.51-0.59,0.7-0.97
					c0.18-0.35,0.41-0.63,0.7-0.89C30.14,37.42,29.41,36.5,28.79,36.89L28.79,36.89z"/>
			</g>
		</g>
		<g>
			<g>
				<path class="st21" d="M18.11,55.52c0.41-0.28,0.83-0.5,1.3-0.66c0.42-0.15,0.81-0.26,1.12-0.61c0.12-0.14,0.1-0.34-0.06-0.44
					c-0.9-0.58-2.19,0.2-2.94,0.73C16.95,54.96,17.5,55.94,18.11,55.52L18.11,55.52z"/>
			</g>
		</g>
		<g>
			<g>
				<path class="st21" d="M29.72,37.3c-0.01-0.01-0.01-0.01-0.02-0.02c-0.16-0.2-0.46-0.24-0.69-0.18c-0.98,0.23-2.03,1.49-1.56,2.5
					c0.13,0.27,0.51,0.4,0.79,0.32c0.45-0.13,0.67-0.47,0.92-0.84c0.21-0.31,0.48-0.61,0.65-0.94c0.11-0.21,0.15-0.5,0-0.71
					C29.78,37.38,29.75,37.34,29.72,37.3L29.72,37.3z"/>
			</g>
		</g>
		<g>
			<g>
				<path class="st21" d="M29.1,36.84c-0.63,0.11-1.17,0.39-1.57,0.89c-0.48,0.61-0.69,1.4-0.12,2.03c0.27,0.31,0.73,0.3,1.07,0.14
					c0.72-0.35,0.72-1.36,1.34-1.84C30.44,37.56,29.72,36.73,29.1,36.84L29.1,36.84z"/>
			</g>
		</g>
		<g>
			<g>
				<path class="st21" d="M29.28,36.93c-0.39-0.04-0.66-0.08-1.03,0.14c-0.34,0.2-0.6,0.49-0.81,0.81c-0.5,0.75-0.63,1.75-0.02,2.45
					c0.34,0.39,1.15,0.42,1.48,0c0.41-0.52,0.39-0.98,0.56-1.53c0.05-0.17,0.12-0.33,0.19-0.51c0.1-0.25,0.08-0.46,0.16-0.68
					C29.94,37.26,29.6,36.96,29.28,36.93L29.28,36.93z"/>
			</g>
		</g>
		<g>
			<g>
				<path class="st21" d="M29.46,36.86c-0.82-0.09-1.47,0.25-1.91,0.96c-0.51,0.83-0.7,2.05,0.3,2.61c0.63,0.35,1.27,0,1.52-0.62
					c0.15-0.37,0.18-0.79,0.32-1.17c0.06-0.16,0.12-0.33,0.16-0.49c0.02-0.07,0.06-0.3,0.06-0.3c-0.02,0.09-0.18,0.25,0.01,0.1
					C30.4,37.57,29.94,36.92,29.46,36.86L29.46,36.86z"/>
			</g>
		</g>
		<g>
			<g>
				<path class="st21" d="M30.27,43.48c0.39,1.66,0.4,3.23-0.34,4.8c-0.46,0.98-1.21,1.75-1.59,2.77c-0.1,0.28,0.16,0.6,0.45,0.59
					c3.86-0.19,3.61-6,2.84-8.53C31.36,42.24,30.06,42.6,30.27,43.48L30.27,43.48z"/>
			</g>
		</g>
		<g>
			<g>
				<path class="st21" d="M28.24,51.74c0.6,0,0.6-0.93,0-0.93C27.65,50.82,27.65,51.74,28.24,51.74L28.24,51.74z"/>
			</g>
		</g>
		<g>
			<g>
				<path class="st21" d="M23.09,53.48c0.94-0.26,1.86-0.56,2.77-0.92c0.71-0.28,1.52-0.49,1.78-1.27c0.08-0.24-0.1-0.47-0.31-0.55
					c-0.7-0.25-1.39,0.23-2.02,0.5c-0.84,0.36-1.7,0.67-2.57,0.96C21.93,52.46,22.26,53.71,23.09,53.48L23.09,53.48z"/>
			</g>
		</g>
		<g>
			<g>
				<path class="st21" d="M23.5,53.05c0.98-0.31,1.94-0.65,2.89-1.05c0.79-0.33,1.59-0.7,1.96-1.51c0.09-0.2,0.04-0.54-0.23-0.57
					c-0.81-0.11-1.47,0.18-2.19,0.54c-0.92,0.46-1.83,0.89-2.79,1.27C22.34,52.05,22.64,53.32,23.5,53.05L23.5,53.05z"/>
			</g>
		</g>
		<g>
			<g>
				<path class="st21" d="M23.74,52.73c1.68-0.28,4.31-0.82,5.14-2.52c0.13-0.26-0.02-0.63-0.35-0.61c-0.84,0.05-1.56,0.45-2.32,0.8
					c-0.92,0.42-1.87,0.71-2.87,0.91C22.42,51.5,22.82,52.88,23.74,52.73L23.74,52.73z"/>
			</g>
		</g>
		<g>
			<g>
				<path class="st21" d="M28.08,40.92c0.44,0.76,0.81,1.54,1.19,2.33c0.35,0.73,0.67,1.61,1.3,2.14c0.55,0.47,1.47,0.18,1.47-0.61
					c0-1.75-1.73-3.5-2.8-4.75C28.69,39.38,27.67,40.21,28.08,40.92L28.08,40.92z"/>
			</g>
		</g>
		<g>
			<g>
				<path class="st21" d="M27.82,41.08c0.53,0.91,1,1.82,1.42,2.79c0.39,0.9,0.59,1.88,1.22,2.65c0.44,0.54,1.35,0.21,1.51-0.4
					c0.59-2.21-1.76-4.38-3.07-5.87C28.38,39.65,27.43,40.42,27.82,41.08L27.82,41.08z"/>
			</g>
		</g>
		<g>
			<g>
				<path class="st21" d="M28.01,41.66c0.16-0.01,0.67,0.71,0.78,0.85c0.3,0.38,0.56,0.81,0.78,1.24c0.42,0.81,0.53,1.72,0.94,2.53
					c0.44,0.88,1.55,0.32,1.65-0.45c0.19-1.42-0.91-3.1-1.92-4.01c-0.51-0.45-2.15-1.83-2.55-0.6
					C27.61,41.43,27.79,41.66,28.01,41.66L28.01,41.66z"/>
			</g>
		</g>
		<g>
			<g>
				<path class="st21" d="M30.05,41.56c-0.02-0.07-0.03-0.14-0.05-0.22c-0.03-0.48-0.63-0.64-0.89-0.24
					c-0.01,0.02-0.03,0.04-0.04,0.06c-0.14,0.2-0.11,0.47,0,0.68c0.27,0.53,0.59,1.04,0.91,1.55c0.29,0.47,0.6,1.09,1.2,1.18
					c0.24,0.04,0.57-0.02,0.68-0.28c0.5-1.16-0.89-2.59-1.73-3.26c-0.17-0.14-0.42-0.27-0.65-0.17c-0.03,0.01-0.05,0.02-0.08,0.03
					c0.04,0.31,0.09,0.63,0.13,0.94c0.07,0.01,0.15,0.03,0.22,0.04C29.94,41.96,30.16,41.75,30.05,41.56L30.05,41.56z"/>
			</g>
		</g>
		<g>
			<g>
				<path class="st21" d="M28.7,41.26c0.37,0.3,0.72,0.61,1.05,0.95c0.32,0.34,0.6,0.68,0.99,0.94c0.32,0.21,0.83-0.15,0.68-0.52
					c-0.37-0.93-1.32-1.59-2.12-2.15C28.85,40.16,28.26,40.91,28.7,41.26L28.7,41.26z"/>
			</g>
		</g>
		<g>
			<path class="st23" d="M28.52,40.81c0.64,0.49,1.25,1.03,1.83,1.59"/>
		</g>
		<g>
			<path class="st23" d="M28.19,40.9c0.87,0.53,1.65,1.2,2.32,1.97"/>
		</g>
		<g>
			<path class="st23" d="M28.29,41.03c0.95,0.47,1.8,1.17,2.44,2.01"/>
		</g>
		<g>
			<path class="st23" d="M28.42,41.02c0.7,0.71,1.39,1.43,2.09,2.14"/>
		</g>
		<g>
			<path class="st23" d="M29.4,41.6"/>
		</g>
		<g>
			<path class="st23" d="M30.5,42.18c0.31,0.78,0.62,1.56,0.76,2.39s0.07,1.71-0.33,2.44"/>
		</g>
		<g>
			<path class="st23" d="M31.27,44.67c0.37,0.84,0.43,1.82,0.17,2.71c-0.26,0.88-0.85,1.67-1.63,2.17"/>
		</g>
		<g>
			<path class="st23" d="M28.42,40.43c0.91,0.62,1.67,1.47,2.2,2.44"/>
		</g>
		<g>
			<path class="st23" d="M28.1,40.47c1.01,0.96,1.88,2.07,2.58,3.27"/>
		</g>
		<g>
			<path class="st23" d="M28.4,40.75c0.92,0.69,1.67,1.62,2.08,2.69c0.41,1.07,0.46,2.29,0.06,3.37"/>
		</g>
		<g>
			<path class="st23" d="M30.47,43.44c0.48,1.4,0.33,2.95-0.19,4.33c-0.52,1.38-1.39,2.6-2.37,3.7"/>
		</g>
		<g>
			<path class="st23" d="M29.21,49.81c-0.39,1.23-1.43,2.18-2.59,2.76c-1.16,0.58-2.44,0.84-3.71,1.09"/>
		</g>
		<g>
			<path class="st23" d="M19.61,52.91c-0.32,0.12-0.64,0.28-0.93,0.46c-0.2,0.12-0.41,0.27-0.49,0.49c-0.15,0.39,0.24,0.87,0.66,0.8
				"/>
		</g>
		<g>
			<path class="st23" d="M19.55,53.49c-0.3-0.19-0.71-0.12-1.02,0.05c-0.15,0.08-0.3,0.19-0.39,0.34c-0.15,0.23-0.15,0.54-0.02,0.77
				c0.14,0.23,0.41,0.38,0.68,0.37"/>
		</g>
		<g>
			<path class="st23" d="M19.61,53.14c-0.47,0.06-0.99,0.2-1.24,0.61c-0.2,0.32-0.17,0.77,0.08,1.06c0.24,0.29,0.68,0.4,1.03,0.26"
				/>
		</g>
		<g>
			<path class="st23" d="M19.72,52.88c-0.54,0.02-1.07,0.24-1.46,0.62c-0.15,0.15-0.29,0.34-0.29,0.55c0,0.36,0.37,0.61,0.72,0.72
				c0.3,0.09,0.61,0.12,0.92,0.1"/>
		</g>
		<line class="st22" x1="3.55" y1="31.64" x2="2.16" y2="32.47"/>
		<g>
			<g>
				<path class="st21" d="M28.15,40.2c0.02,1.18,0.85,2.45,2.06,2.72c1.04,0.23,1.62-0.92,0.99-1.69c-0.47-0.57-1.33-0.76-1.75-1.38
					C29.07,39.31,28.14,39.48,28.15,40.2L28.15,40.2z"/>
			</g>
		</g>
		<g>
			<g>
				<path class="st21" d="M27.56,41.23c0.69,0.77,1.33,1.56,1.74,2.52c0.39,0.91,0.42,1.88,0.74,2.79c0.35,0.98,1.59,0.94,1.96,0
					c0.97-2.48-1.64-5-3.33-6.41C27.9,39.49,26.88,40.48,27.56,41.23L27.56,41.23z"/>
			</g>
		</g>
		<g>
			<g>
				<path class="st21" d="M29.54,37.1c-1-0.23-1.98-0.22-2.8,0.51c-0.81,0.71-1.19,1.81-0.89,2.86c0.61,2.09,3.84,3.12,5.66,2.08
					c0.75-0.43,0.66-1.43,0-1.88c-0.46-0.31-0.99-0.41-1.51-0.54c-0.4-0.1-1.1-0.15-1.43-0.44c-0.45-0.41,0.8-1.09,1.13-1.28
					C30.22,38.11,30.14,37.24,29.54,37.1L29.54,37.1z"/>
			</g>
		</g>
		<g>
			<g>
				<path class="st21" d="M28.26,40.69c0.44,0.58,0.85,1.17,1.24,1.79c0.38,0.59,0.67,1.3,1.2,1.77c0.59,0.51,1.53,0.03,1.33-0.77
					c-0.18-0.72-0.72-1.31-1.17-1.88c-0.47-0.61-0.97-1.19-1.49-1.76C28.84,39.25,27.77,40.04,28.26,40.69L28.26,40.69z"/>
			</g>
		</g>
		<g>
			<g>
				<path class="st21" d="M27.54,41.15c0.39,0.33,0.75,0.7,1.11,1.08c0.37,0.39,0.65,0.86,1.12,1.11c0.66,0.36,1.29-0.23,1.18-0.91
					c-0.09-0.61-0.59-1.09-1.01-1.5c-0.42-0.41-0.91-0.75-1.42-1.04C27.75,39.44,26.83,40.54,27.54,41.15L27.54,41.15z"/>
			</g>
		</g>
		<g>
			<g>
				<path class="st21" d="M28.26,39.47c0.33-0.41,0.67-0.49,1.17-0.55c0.93-0.11,0.95-1.37,0-1.46c-0.86-0.08-1.71,0.57-2.09,1.3
					C27.06,39.31,27.83,40.01,28.26,39.47L28.26,39.47z"/>
			</g>
		</g>
		<g>
			<g>
				<path class="st21" d="M27.79,38.69c0.29-0.35,0.83-0.29,1.25-0.31c0.59-0.02,1.2-0.01,1.78-0.14c0.69-0.15,1.71-0.81,0.84-1.51
					c-0.71-0.58-2.41-0.28-3.23-0.11c-0.89,0.19-1.51,0.75-1.59,1.67C26.79,38.76,27.48,39.05,27.79,38.69L27.79,38.69z"/>
			</g>
		</g>
	</g>
	<g id="balise_localisation_-_copie_2" class="st1">
		<circle class="st21" cx="16.16" cy="44.45" r="1.85"/>
		<polygon class="st21" points="16.18,48.73 16.09,48.74 14.44,45.23 17.88,45.22 		"/>
		<circle class="st24" cx="16.16" cy="44.45" r="0.71"/>
	</g>
	<g id="balise_localisation_-_copie" class="st1">
		<circle class="st25" cx="24.31" cy="28.9" r="4.19"/>
		<polygon class="st25" points="24.35,38.62 24.29,38.64 20.55,30.68 28.11,30.66 		"/>
		<circle class="st10" cx="24.31" cy="28.9" r="1.61"/>
	</g>
	<g id="balise_localisation">
		<circle class="st26" cx="-77.65" cy="121.98" r="6.16"/>
		<polygon class="st27" points="-77.58,136.27 -77.89,136.3 -83.38,124.59 -71.92,124.56 		"/>
		<circle class="st28" cx="-77.65" cy="121.98" r="2.37"/>
	</g>
	<g id="boussole" class="st1">
		<circle id="bousole_2_" class="st29" cx="44.86" cy="21.09" r="8.7"/>
		<g id="étoiles">
			<g>
				<polyline class="st21" points="43.83,21.44 44.73,12.4 45.89,21.44 				"/>
				<g>
					<polyline class="st21" points="45.89,20.77 44.99,29.82 43.83,20.77 					"/>
				</g>
				<g>
					<polyline class="st21" points="44.51,20.41 53.56,21.31 44.51,22.48 					"/>
				</g>
				<polyline class="st21" points="45.2,22.48 36.17,21.39 45.24,20.41 				"/>
			</g>
		</g>
		<g id="Calque_31">
			<circle class="st30" cx="44.86" cy="21.44" r="0.75"/>
			<rect x="44.06" y="10.17" class="st23" width="3.1" height="2.35"/>
			<text transform="matrix(1 0 0 1 44.0576 11.6157)" class="st31 st32 st33">N</text>
			<rect x="34.07" y="20.77" class="st23" width="2.17" height="1.85"/>
			<text transform="matrix(1 0 0 1 34.0742 22.225)" class="st31 st32 st33">O</text>
			<rect x="54.24" y="20.77" class="st23" width="1.96" height="3.13"/>
			<text transform="matrix(1 0 0 1 54.2441 22.225)" class="st31 st32 st33">E</text>
			<rect x="44.34" y="30.75" class="st23" width="3.1" height="2.61"/>
			<text transform="matrix(1 0 0 1 44.3398 32.1999)" class="st31 st32 st33">S</text>
		</g>
		<g id="Calque_32">
			<path class="st34" d="M48.53,25.16c0.69,0.69,0.94,0.94,1.63,1.63"/>
			<path class="st34" d="M39.04,15.64c0.98,0.98,0.68,0.68,1.66,1.66"/>
			<line class="st35" x1="51.01" y1="14.94" x2="38.79" y2="27.16"/>
		</g>
		<g id="Calque_32_-_copie">
			<path class="st34" d="M48.8,17.27c0.69-0.69,0.94-0.94,1.63-1.63"/>
			<path class="st34" d="M39.26,26.8c0.98-0.98,0.68-0.68,1.66-1.66"/>
			<line class="st35" x1="51.01" y1="14.94" x2="38.79" y2="27.16"/>
		</g>
	</g>
</g>
<g id="Etudes_1_" class="st0">
	<circle id="cercle_logo_5_" class="st19" cx="32.47" cy="31.84" r="30"/>
	<polyline id="sweat_1_" class="st36" points="44.19,49.86 44.19,35.78 31.99,28.74 19.8,35.78 19.8,49.86 	"/>
	<rect id="chemise_1_" x="26.33" y="32.64" class="st37" width="11.77" height="16.79"/>
	<g id="cravate" class="st1">
		<polygon class="st38" points="33.26,32.67 31.17,32.67 30.12,34.48 31.17,36.3 33.26,36.3 34.31,34.48 		"/>
		<polyline class="st38" points="32.22,49.21 35.03,46.55 33.29,35.02 31.14,35.02 29.4,46.51 		"/>
	</g>
	<g id="cou" class="st1">
		<rect x="28.05" y="29.28" class="st39" width="7.96" height="3.46"/>
	</g>
	<g id="collar" class="st1">
		
			<rect x="26.92" y="29.46" transform="matrix(0.4575 -0.8892 0.8892 0.4575 -13.3039 42.6336)" class="st40" width="2.73" height="5.52"/>
		<rect x="33.26" y="30.78" transform="matrix(0.866 -0.5 0.5 0.866 -11.2459 22.3163)" class="st40" width="5.52" height="2.73"/>
	</g>
	<g id="face" class="st1">
		<path class="st40" d="M34.16,29.8h-4.33c-2.47,0-4.49-2.02-4.49-4.49V25c0-2.47,0-4.48,2.47-4.48h8.53c2.47,0,2.3,2.01,2.3,4.48
			v0.31C38.64,27.78,36.62,29.8,34.16,29.8z"/>
	</g>
	<g id="casque" class="st1">
		<path class="st41" d="M25.01,20.37c0-3.91,3.17-7.08,7.08-7.08s7.08,3.17,7.08,7.08"/>
		<rect x="24.11" y="20.52" class="st42" width="15.76" height="2.3"/>
		<rect x="30.51" y="12.82" class="st43" width="3.04" height="1.23"/>
		<rect x="31.23" y="14.22" class="st43" width="1.6" height="6.3"/>
	</g>
</g>
<g id="Couleurs_004080" class="st0">
</g>
</svg>
